<svg width="545" height="324" viewBox="0 0 545 324" fill="none" xmlns="http://www.w3.org/2000/svg">
<path d="M472.806 0H145.902C144.656 0.00110878 143.462 0.398558 142.581 1.10515C141.7 1.81175 141.204 2.76978 141.203 3.76906V181.453C141.204 182.453 141.7 183.411 142.581 184.117C143.462 184.824 144.656 185.221 145.902 185.222H472.806C474.052 185.221 475.246 184.824 476.127 184.117C477.008 183.411 477.504 182.453 477.505 181.453V3.76906C477.504 2.76978 477.008 1.81175 476.127 1.10515C475.246 0.398558 474.052 0.00110878 472.806 0ZM476.163 181.453C476.162 182.167 475.808 182.852 475.179 183.357C474.55 183.861 473.696 184.145 472.806 184.145H145.902C145.012 184.145 144.158 183.861 143.529 183.357C142.899 182.852 142.546 182.167 142.545 181.453V3.76906C142.546 3.05514 142.899 2.37054 143.529 1.86572C144.158 1.36089 145.012 1.07716 145.902 1.07687H472.806C473.696 1.07716 474.55 1.36089 475.179 1.86572C475.808 2.37054 476.162 3.05514 476.163 3.76906V181.453Z" fill="#3F3D56"/>
<path d="M476.834 15.0978H141.874V16.1747H476.834V15.0978Z" fill="#3F3D56"/>
<path d="M153.286 11.3072C155.51 11.3072 157.313 9.86079 157.313 8.07657C157.313 6.29235 155.51 4.84595 153.286 4.84595C151.061 4.84595 149.258 6.29235 149.258 8.07657C149.258 9.86079 151.061 11.3072 153.286 11.3072Z" fill="#3F3D56"/>
<path d="M164.865 11.3072C167.089 11.3072 168.892 9.86079 168.892 8.07657C168.892 6.29235 167.089 4.84595 164.865 4.84595C162.64 4.84595 160.837 6.29235 160.837 8.07657C160.837 9.86079 162.64 11.3072 164.865 11.3072Z" fill="#3F3D56"/>
<path d="M176.444 11.3072C178.668 11.3072 180.472 9.86079 180.472 8.07657C180.472 6.29235 178.668 4.84595 176.444 4.84595C174.22 4.84595 172.417 6.29235 172.417 8.07657C172.417 9.86079 174.22 11.3072 176.444 11.3072Z" fill="#3F3D56"/>
<path d="M337.547 40.1136H281.161C279.915 40.1136 278.72 39.7165 277.838 39.0096C276.957 38.3028 276.462 37.3441 276.462 36.3445C276.462 35.3449 276.957 34.3862 277.838 33.6794C278.72 32.9725 279.915 32.5754 281.161 32.5754H337.547C338.793 32.5754 339.988 32.9725 340.87 33.6794C341.751 34.3862 342.246 35.3449 342.246 36.3445C342.246 37.3441 341.751 38.3028 340.87 39.0096C339.988 39.7165 338.793 40.1136 337.547 40.1136Z" fill="#CCCCCC"/>
<path d="M376.145 58.4204H242.563C241.317 58.4204 240.122 58.0233 239.241 57.3165C238.36 56.6096 237.865 55.651 237.865 54.6514C237.865 53.6517 238.36 52.6931 239.241 51.9862C240.122 51.2794 241.317 50.8823 242.563 50.8823H376.145C377.391 50.8823 378.586 51.2794 379.467 51.9862C380.348 52.6931 380.843 53.6517 380.843 54.6514C380.843 55.651 380.348 56.6096 379.467 57.3165C378.586 58.0233 377.391 58.4204 376.145 58.4204Z" fill="#CCCCCC"/>
<path d="M416.206 170.927C411.143 170.927 406.193 169.723 401.983 167.467C397.773 165.21 394.492 162.003 392.554 158.251C390.617 154.499 390.11 150.37 391.098 146.386C392.085 142.403 394.524 138.744 398.104 135.872C401.684 133 406.246 131.045 411.212 130.252C416.178 129.46 421.325 129.866 426.003 131.421C430.681 132.975 434.679 135.607 437.492 138.984C440.305 142.361 441.807 146.331 441.807 150.392C441.799 155.837 439.099 161.056 434.3 164.906C429.501 168.756 422.994 170.921 416.206 170.927ZM416.206 131.274C411.492 131.274 406.884 132.395 402.964 134.496C399.045 136.597 395.99 139.583 394.186 143.076C392.382 146.57 391.91 150.414 392.829 154.122C393.749 157.831 396.019 161.238 399.352 163.911C402.686 166.585 406.933 168.406 411.556 169.144C416.18 169.882 420.972 169.503 425.327 168.056C429.683 166.609 433.405 164.158 436.024 161.014C438.643 157.87 440.041 154.174 440.041 150.392C440.034 145.324 437.521 140.464 433.052 136.88C428.584 133.296 422.525 131.28 416.206 131.274Z" fill="#3F3D56"/>
<path d="M201.579 115.93C196.516 115.93 191.566 114.726 187.357 112.469C183.147 110.213 179.865 107.006 177.928 103.253C175.99 99.5011 175.483 95.3722 176.471 91.3888C177.459 87.4055 179.897 83.7465 183.477 80.8746C187.057 78.0028 191.619 76.047 196.585 75.2547C201.551 74.4623 206.698 74.869 211.376 76.4232C216.054 77.9775 220.052 80.6095 222.865 83.9864C225.678 87.3634 227.18 91.3336 227.18 95.395C227.172 100.839 224.473 106.059 219.673 109.909C214.874 113.758 208.367 115.924 201.579 115.93ZM201.579 76.2763C196.865 76.2763 192.257 77.3976 188.337 79.4984C184.418 81.5992 181.363 84.5851 179.559 88.0786C177.755 91.5721 177.283 95.4162 178.202 99.1249C179.122 102.834 181.392 106.24 184.726 108.914C188.059 111.588 192.306 113.409 196.929 114.146C201.553 114.884 206.345 114.505 210.701 113.058C215.056 111.611 218.778 109.161 221.397 106.017C224.016 102.873 225.414 99.1763 225.414 95.395C225.407 90.3262 222.894 85.4666 218.425 81.8824C213.957 78.2982 207.899 76.2821 201.579 76.2763Z" fill="#3F3D56"/>
<path d="M211.524 106.281C210.853 106.281 210.21 106.068 209.736 105.688C209.262 105.308 208.995 104.792 208.994 104.255V92.733C208.994 92.1959 209.261 91.6809 209.734 91.3011C210.208 90.9213 210.85 90.7077 211.519 90.707H211.524C212.193 90.7077 212.835 90.9213 213.309 91.3011C213.782 91.6809 214.049 92.1959 214.049 92.733V104.255C214.049 104.792 213.782 105.307 213.309 105.687C212.835 106.066 212.193 106.28 211.524 106.281ZM204.929 106.281C204.595 106.283 204.263 106.233 203.953 106.133C203.643 106.032 203.361 105.883 203.123 105.695C202.885 105.507 202.695 105.283 202.566 105.035C202.436 104.788 202.368 104.523 202.367 104.255V98.0483C202.368 97.5112 202.634 96.9962 203.108 96.6165C203.581 96.2367 204.223 96.0231 204.893 96.0225H204.929C205.599 96.0231 206.241 96.2367 206.714 96.6165C207.188 96.9962 207.454 97.5112 207.455 98.0483V104.255C207.454 104.792 207.188 105.307 206.714 105.687C206.241 106.066 205.599 106.28 204.929 106.281ZM198.271 106.281C197.6 106.281 196.957 106.068 196.483 105.688C196.009 105.308 195.742 104.792 195.741 104.255V86.5353C195.741 85.9982 196.008 85.4832 196.481 85.1034C196.955 84.7236 197.597 84.5099 198.266 84.5093H198.271C198.94 84.5099 199.582 84.7236 200.056 85.1034C200.529 85.4832 200.796 85.9982 200.796 86.5353V104.255C200.796 104.792 200.529 105.307 200.056 105.687C199.582 106.066 198.94 106.28 198.271 106.281ZM191.638 106.281C191.306 106.281 190.977 106.229 190.67 106.127C190.363 106.025 190.084 105.876 189.849 105.688C189.615 105.499 189.428 105.276 189.301 105.029C189.174 104.783 189.109 104.52 189.11 104.253L189.112 101.592C189.113 101.055 189.379 100.539 189.853 100.16C190.327 99.7799 190.969 99.5667 191.639 99.5669C192.309 99.5672 192.951 99.7808 193.424 100.161C193.898 100.541 194.164 101.056 194.163 101.594V104.255C194.163 104.792 193.896 105.307 193.423 105.687C192.949 106.066 192.307 106.28 191.638 106.281Z" fill="#6C63FF"/>
<path d="M194.601 246.07C189.537 246.07 184.588 244.865 180.378 242.609C176.168 240.353 172.886 237.145 170.949 233.393C169.011 229.641 168.504 225.512 169.492 221.529C170.48 217.545 172.918 213.886 176.498 211.015C180.079 208.143 184.64 206.187 189.606 205.395C194.572 204.602 199.72 205.009 204.397 206.563C209.075 208.117 213.074 210.749 215.887 214.126C218.7 217.503 220.201 221.473 220.201 225.535C220.193 230.979 217.494 236.199 212.694 240.048C207.895 243.898 201.388 246.064 194.601 246.07ZM194.601 206.416C189.886 206.416 185.278 207.537 181.359 209.638C177.439 211.739 174.384 214.725 172.58 218.218C170.776 221.712 170.304 225.556 171.224 229.265C172.143 232.973 174.413 236.38 177.747 239.054C181.08 241.728 185.327 243.548 189.951 244.286C194.574 245.024 199.367 244.645 203.722 243.198C208.077 241.751 211.8 239.301 214.419 236.157C217.038 233.013 218.436 229.316 218.436 225.535C218.428 220.466 215.915 215.606 211.447 212.022C206.978 208.438 200.92 206.422 194.601 206.416Z" fill="#3F3D56"/>
<path d="M201.875 221.389L196.884 227.51C197.285 227.901 197.503 228.391 197.5 228.897C197.499 229.481 197.21 230.04 196.695 230.452C196.18 230.865 195.482 231.096 194.755 231.096C194.027 231.096 193.329 230.865 192.814 230.452C192.3 230.04 192.01 229.481 192.009 228.897C192.01 228.755 192.026 228.614 192.056 228.474L188.762 226.936C188.337 227.266 187.789 227.476 187.202 227.536C186.615 227.595 186.019 227.5 185.505 227.265L182 229.899V232.524C182.001 233.044 182.259 233.541 182.716 233.909C183.173 234.276 183.793 234.484 184.44 234.486H205.19C205.838 234.484 206.458 234.276 206.916 233.909C207.374 233.542 207.633 233.044 207.636 232.524V222.788L204.284 221C203.947 221.21 203.554 221.354 203.136 221.422C202.718 221.489 202.287 221.478 201.875 221.389Z" fill="#6C63FF"/>
<path d="M186.859 221.745C187.588 221.745 188.286 221.977 188.801 222.39C189.316 222.803 189.605 223.363 189.605 223.948V224.231L193.042 225.774C193.532 225.451 194.147 225.275 194.781 225.275C194.981 225.276 195.18 225.293 195.376 225.326L200.378 219.115C200.128 218.834 199.965 218.509 199.901 218.167C199.838 217.825 199.876 217.476 200.012 217.149C200.148 216.821 200.379 216.523 200.686 216.281C200.993 216.038 201.366 215.857 201.777 215.752C202.187 215.647 202.623 215.622 203.048 215.677C203.473 215.733 203.876 215.868 204.224 216.073C204.571 216.277 204.854 216.544 205.048 216.852C205.243 217.161 205.344 217.502 205.343 217.847C205.343 218.022 205.318 218.197 205.269 218.367L207.635 219.635V215.962C207.633 215.442 207.374 214.944 206.916 214.577C206.458 214.21 205.838 214.002 205.19 214H184.44C183.793 214.002 183.173 214.21 182.716 214.577C182.259 214.945 182.001 215.442 182 215.962V226.484L184.287 224.725C184.135 224.393 184.084 224.036 184.14 223.685C184.196 223.333 184.358 222.998 184.61 222.707C184.863 222.417 185.199 222.179 185.591 222.015C185.983 221.851 186.418 221.766 186.859 221.766V221.745Z" fill="#6C63FF"/>
<path d="M310.369 115.93C305.306 115.93 300.356 114.726 296.146 112.469C291.936 110.213 288.655 107.006 286.717 103.253C284.78 99.5011 284.273 95.3722 285.261 91.3888C286.248 87.4055 288.687 83.7465 292.267 80.8746C295.847 78.0028 300.409 76.047 305.375 75.2547C310.341 74.4623 315.488 74.869 320.166 76.4232C324.844 77.9775 328.842 80.6095 331.655 83.9864C334.468 87.3634 335.97 91.3336 335.97 95.395C335.962 100.839 333.262 106.059 328.463 109.909C323.664 113.758 317.157 115.924 310.369 115.93ZM310.369 76.2763C305.655 76.2763 301.047 77.3976 297.127 79.4984C293.208 81.5992 290.153 84.5851 288.349 88.0786C286.545 91.5721 286.073 95.4162 286.992 99.1249C287.912 102.834 290.182 106.24 293.515 108.914C296.849 111.588 301.096 113.409 305.719 114.146C310.343 114.884 315.135 114.505 319.49 113.058C323.846 111.611 327.568 109.161 330.187 106.017C332.806 102.873 334.204 99.1763 334.204 95.395C334.197 90.3262 331.684 85.4666 327.215 81.8824C322.747 78.2982 316.688 76.2821 310.369 76.2763Z" fill="#3F3D56"/>
<path d="M296.768 102.839C296.4 102.839 296.041 102.751 295.735 102.587C295.429 102.423 295.19 102.19 295.049 101.918C294.908 101.645 294.871 101.345 294.942 101.056C295.014 100.766 295.19 100.5 295.45 100.291L304.909 92.6824C305.057 92.5634 305.232 92.4689 305.425 92.4046C305.618 92.3403 305.825 92.3074 306.034 92.3078H306.035C306.244 92.3074 306.451 92.3401 306.644 92.4042C306.837 92.4683 307.012 92.5624 307.159 92.6812L311.546 96.2001C311.635 96.2714 311.74 96.328 311.855 96.3665C311.971 96.4049 312.095 96.4246 312.221 96.4243C312.346 96.4246 312.471 96.4049 312.587 96.3664C312.702 96.3279 312.807 96.2713 312.896 96.1999L319.089 91.2234C319.119 91.1997 319.142 91.1715 319.158 91.1406C319.174 91.1096 319.182 91.0765 319.182 91.043C319.182 91.0095 319.174 90.9763 319.158 90.9454C319.142 90.9144 319.119 90.8863 319.089 90.8627L317.085 89.2579C316.951 89.151 316.86 89.0147 316.823 88.8662C316.786 88.7177 316.805 88.5638 316.877 88.4239C316.95 88.284 317.072 88.1644 317.229 88.0803C317.386 87.9961 317.57 87.9512 317.759 87.9513H324.877C325.13 87.9515 325.372 88.0322 325.551 88.1756C325.73 88.3191 325.83 88.5136 325.831 88.7164V94.4222C325.831 94.5736 325.775 94.7215 325.67 94.8474C325.565 94.9733 325.416 95.0714 325.242 95.1293C325.068 95.1873 324.876 95.2024 324.691 95.1729C324.506 95.1434 324.336 95.0705 324.202 94.9635L322.195 93.3535C322.166 93.3298 322.131 93.311 322.092 93.2982C322.054 93.2853 322.012 93.2787 321.97 93.2787C321.929 93.2787 321.887 93.2853 321.849 93.2982C321.81 93.311 321.775 93.3298 321.746 93.3535L313.358 100.076C313.211 100.195 313.036 100.289 312.843 100.353C312.65 100.418 312.443 100.45 312.234 100.45C312.026 100.45 311.819 100.418 311.626 100.353C311.433 100.289 311.257 100.195 311.11 100.076L306.721 96.5556C306.539 96.4165 306.298 96.3389 306.047 96.3389C305.795 96.3389 305.554 96.4165 305.372 96.5556L298.084 102.401C297.912 102.54 297.707 102.651 297.481 102.726C297.255 102.801 297.013 102.839 296.768 102.839Z" fill="#6C63FF"/>
<path d="M310.369 169.774C305.306 169.774 300.356 168.569 296.146 166.313C291.936 164.056 288.655 160.849 286.717 157.097C284.78 153.345 284.273 149.216 285.261 145.233C286.248 141.249 288.687 137.59 292.267 134.718C295.847 131.847 300.409 129.891 305.375 129.098C310.341 128.306 315.488 128.713 320.166 130.267C324.844 131.821 328.842 134.453 331.655 137.83C334.468 141.207 335.97 145.177 335.97 149.239C335.962 154.683 333.262 159.903 328.463 163.752C323.664 167.602 317.157 169.767 310.369 169.774Z" fill="#E6E6E6"/>
<path d="M416.429 114.315C411.365 114.315 406.416 113.11 402.206 110.854C397.996 108.597 394.714 105.39 392.777 101.638C390.839 97.8858 390.332 93.7569 391.32 89.7735C392.308 85.7902 394.746 82.1312 398.326 79.2593C401.907 76.3875 406.468 74.4317 411.434 73.6394C416.4 72.8471 421.548 73.2537 426.225 74.8079C430.903 76.3622 434.902 78.9942 437.715 82.3711C440.528 85.7481 442.029 89.7183 442.029 93.7797C442.021 99.224 439.322 104.444 434.522 108.293C429.723 112.143 423.216 114.308 416.429 114.315Z" fill="#E6E6E6"/>
<path d="M201.58 128.703C197.186 128.708 192.866 129.616 189.034 131.342C194.572 131.734 199.765 133.667 203.714 136.805C207.664 139.943 210.122 144.09 210.663 148.528C211.205 152.966 209.796 157.417 206.68 161.11C203.564 164.803 198.937 167.506 193.599 168.752C194.599 169.018 195.619 169.232 196.653 169.393C198.276 169.649 199.926 169.777 201.58 169.775C208.37 169.775 214.882 167.612 219.683 163.761C224.485 159.909 227.182 154.686 227.182 149.239C227.182 143.793 224.485 138.57 219.683 134.718C214.882 130.867 208.37 128.703 201.58 128.703Z" fill="#E6E6E6"/>
<path d="M191.867 130.243C190.245 129.983 188.594 129.853 186.94 129.856C180.357 129.85 174.024 131.877 169.254 135.515C164.483 139.153 161.641 144.124 161.316 149.398C160.991 154.672 163.208 159.843 167.508 163.841C171.807 167.839 177.86 170.357 184.411 170.872C190.963 171.388 197.51 169.862 202.696 166.61C207.882 163.358 211.31 158.631 212.269 153.407C213.227 148.183 211.643 142.864 207.845 138.551C204.047 134.239 198.326 131.264 191.867 130.243ZM193.599 168.752C190.32 169.517 186.875 169.709 183.496 169.313C180.118 168.917 176.885 167.944 174.016 166.459C171.147 164.973 168.709 163.011 166.867 160.705C165.026 158.399 163.824 155.802 163.342 153.09C162.86 150.379 163.11 147.616 164.075 144.989C165.04 142.362 166.697 139.931 168.935 137.863C171.173 135.794 173.938 134.135 177.044 132.998C180.151 131.861 183.525 131.272 186.94 131.272C187.645 131.272 188.343 131.299 189.034 131.342C194.572 131.734 199.765 133.667 203.714 136.805C207.664 139.944 210.122 144.09 210.663 148.528C211.205 152.966 209.796 157.417 206.68 161.11C203.564 164.803 198.937 167.506 193.599 168.752Z" fill="#3F3D56"/>
<path d="M201.846 146.777C201 143.802 198.716 141.218 195.497 139.592C192.278 137.966 188.386 137.431 184.676 138.105C184.313 138.172 183.938 138.253 183.607 138.335L187.029 150.394L202.062 147.654C201.999 147.374 201.929 147.068 201.846 146.777Z" fill="#6C63FF"/>
<path d="M200.39 149.771L185.35 152.511L181.935 140.452C179.312 141.103 176.978 142.343 175.208 144.026C173.437 145.708 172.306 147.763 171.947 149.946C171.588 152.129 172.018 154.348 173.184 156.341C174.35 158.335 176.204 160.018 178.526 161.191C180.849 162.365 183.542 162.98 186.287 162.963C189.032 162.946 191.713 162.298 194.013 161.096C196.313 159.895 198.135 158.189 199.263 156.181C200.391 154.174 200.777 151.95 200.377 149.771H200.39Z" fill="#6C63FF"/>
<path d="M464.672 246.309C459.609 246.309 454.659 245.104 450.449 242.848C446.239 240.591 442.958 237.384 441.02 233.632C439.083 229.88 438.576 225.751 439.563 221.768C440.551 217.784 442.989 214.125 446.57 211.253C450.15 208.381 454.712 206.426 459.678 205.633C464.644 204.841 469.791 205.248 474.469 206.802C479.147 208.356 483.145 210.988 485.958 214.365C488.771 217.742 490.272 221.712 490.272 225.774C490.265 231.218 487.565 236.438 482.766 240.287C477.966 244.137 471.459 246.302 464.672 246.309ZM464.672 206.655C459.958 206.655 455.35 207.776 451.43 209.877C447.51 211.978 444.455 214.964 442.651 218.457C440.847 221.951 440.375 225.795 441.295 229.504C442.215 233.212 444.485 236.619 447.818 239.293C451.151 241.966 455.398 243.787 460.022 244.525C464.646 245.263 469.438 244.884 473.793 243.437C478.148 241.99 481.871 239.539 484.49 236.395C487.109 233.251 488.507 229.555 488.507 225.774C488.5 220.705 485.986 215.845 481.518 212.261C477.05 208.677 470.991 206.661 464.672 206.655Z" fill="#3F3D56"/>
<path d="M475.718 234.002C474.781 234.002 473.865 233.78 473.086 233.363C472.306 232.945 471.698 232.352 471.339 231.658C470.98 230.964 470.886 230.2 471.068 229.462C471.25 228.725 471.701 228.048 472.363 227.516C473.025 226.984 473.869 226.622 474.788 226.475C475.707 226.327 476.659 226.402 477.525 226.689C478.391 226.977 479.132 227.463 479.653 228.088C480.174 228.713 480.452 229.447 480.453 230.199C480.453 231.207 479.955 232.173 479.067 232.886C478.179 233.599 476.975 234.001 475.718 234.002ZM464.672 234.002C463.417 234 462.213 233.6 461.326 232.888C460.438 232.176 459.939 231.211 459.937 230.204V221.343C459.939 220.337 460.438 219.372 461.326 218.661C462.214 217.95 463.417 217.55 464.672 217.55C465.927 217.55 467.13 217.95 468.018 218.661C468.906 219.372 469.405 220.337 469.407 221.343V230.204C469.405 231.211 468.906 232.176 468.018 232.888C467.131 233.6 465.927 234.001 464.672 234.002ZM453.629 234.002C452.373 234 451.168 233.6 450.28 232.887C449.392 232.175 448.892 231.209 448.891 230.201V226.661C448.891 225.653 449.39 224.687 450.279 223.974C451.167 223.261 452.372 222.861 453.629 222.861C454.885 222.861 456.091 223.261 456.979 223.974C457.868 224.687 458.367 225.653 458.367 226.661V230.201C458.365 231.209 457.866 232.175 456.977 232.887C456.089 233.6 454.885 234 453.629 234.002Z" fill="#6C63FF"/>
<path d="M425.604 159.007H406.809C406.274 159.007 405.762 158.837 405.385 158.534C405.007 158.231 404.795 157.821 404.795 157.392C404.795 156.964 405.007 156.553 405.385 156.25C405.762 155.947 406.274 155.777 406.809 155.777H425.604C426.138 155.777 426.65 155.947 427.028 156.25C427.405 156.553 427.618 156.964 427.618 157.392C427.618 157.821 427.405 158.231 427.028 158.534C426.65 158.837 426.138 159.007 425.604 159.007Z" fill="#6C63FF"/>
<path d="M425.604 152.008H406.809C406.274 152.008 405.762 151.838 405.385 151.535C405.007 151.232 404.795 150.821 404.795 150.392C404.795 149.964 405.007 149.553 405.385 149.25C405.762 148.947 406.274 148.777 406.809 148.777H425.604C426.138 148.777 426.65 148.947 427.028 149.25C427.405 149.553 427.618 149.964 427.618 150.392C427.618 150.821 427.405 151.232 427.028 151.535C426.65 151.838 426.138 152.008 425.604 152.008Z" fill="#6C63FF"/>
<path d="M425.604 145.008H406.809C406.274 145.008 405.762 144.838 405.385 144.535C405.007 144.232 404.795 143.821 404.795 143.393C404.795 142.964 405.007 142.554 405.385 142.251C405.762 141.948 406.274 141.777 406.809 141.777H425.604C426.138 141.777 426.65 141.948 427.028 142.251C427.405 142.554 427.618 142.964 427.618 143.393C427.618 143.821 427.405 144.232 427.028 144.535C426.65 144.838 426.138 145.008 425.604 145.008Z" fill="#6C63FF"/>
</svg>
