<svg width="403" height="407" viewBox="0 0 403 407" fill="none" xmlns="http://www.w3.org/2000/svg">
<path d="M163.322 92.0862C185.934 92.0862 204.265 76.9025 204.265 58.1725C204.265 39.4426 185.934 24.2589 163.322 24.2589C140.709 24.2589 122.378 39.4426 122.378 58.1725C122.378 76.9025 140.709 92.0862 163.322 92.0862Z" fill="#6C63FF"/>
<path d="M48.2461 159.055C27.702 121.416 28.4595 73.7054 60.3432 41.9434C71.0101 85.9866 100.141 125.485 142.582 153.45C158.997 164.186 178.604 174.712 183.089 191.633C185.879 202.162 181.924 213.298 175.086 222.47C168.248 231.642 158.717 239.186 149.294 246.622L148.237 249.166C107.235 225.652 68.7902 196.695 48.2461 159.055Z" fill="#F2F2F2"/>
<path d="M61.2306 42.4026C53.893 75.6834 59.344 111.121 77.1791 141.613C81.035 148.205 85.6391 154.614 91.8034 159.916C97.9704 165.22 105.344 168.56 113.826 170.611C121.581 172.486 129.775 173.661 136.844 177.065C144.296 180.653 148.92 186.673 150.721 193.578C152.925 202.025 151.333 210.625 149.424 218.99C147.304 228.277 144.924 237.896 147.996 247.233C148.368 248.364 146.228 248.776 145.856 247.647C140.51 231.403 150.903 215.382 149.451 199.05C148.773 191.43 145.318 183.932 137.43 179.517C130.531 175.656 122.083 174.439 114.211 172.596C105.946 170.661 98.5231 167.706 92.2069 162.804C85.7458 157.789 80.8294 151.515 76.787 145.034C67.6703 130.416 61.6605 114.311 58.4809 98.0958C54.8246 79.4587 55.0442 60.441 59.1302 41.8653C59.3837 40.7157 61.4825 41.2605 61.2306 42.4026Z" fill="white"/>
<path d="M70.7506 131.955C64.0949 133.722 56.8978 133.471 50.4444 131.249C43.991 129.026 38.7016 124.975 35.5209 119.821C34.8817 118.776 36.8118 117.904 37.452 118.95C40.4032 123.755 45.3307 127.527 51.3452 129.587C57.3596 131.647 64.0649 131.858 70.2508 130.182C71.5956 129.819 72.0877 131.594 70.7506 131.955Z" fill="white"/>
<path d="M109.743 170.089C116.394 159.615 118.034 147.45 114.337 136.019C113.97 134.887 116.111 134.474 116.478 135.605C120.298 147.506 118.56 160.163 111.61 171.05C110.947 172.087 109.084 171.121 109.743 170.089Z" fill="white"/>
<path d="M57.6502 80.0501C60.3974 79.811 63.0298 79.0104 65.3112 77.7203C67.5925 76.4302 69.4513 74.6909 70.7206 72.6587C71.3677 71.615 73.2304 72.5827 72.5875 73.6196C71.1725 75.8595 69.1169 77.7782 66.6002 79.2082C64.0834 80.6382 61.1822 81.536 58.15 81.823C57.8669 81.8699 57.5729 81.8258 57.3277 81.6996C57.0825 81.5734 56.9045 81.3746 56.8299 81.1436C56.7651 80.9086 56.815 80.6619 56.9686 80.4571C57.1222 80.2524 57.3671 80.1061 57.6502 80.0501Z" fill="white"/>
<path d="M229.193 42.312C228.811 42.9733 228.43 43.6345 228.057 44.3093C222.981 53.2212 218.788 62.4599 215.519 71.9342C215.252 72.6634 214.995 73.4057 214.754 74.1397C207.171 97.0352 204.786 120.898 207.72 144.514C208.898 153.911 210.937 163.22 213.82 172.36C217.802 184.984 223.333 198.408 222.085 211.012C221.972 212.329 221.762 213.638 221.454 214.933L152.067 250.037C151.861 250.051 151.663 250.079 151.457 250.094L148.764 251.6C148.575 251.137 148.392 250.654 148.203 250.191C148.093 249.923 147.997 249.647 147.887 249.379C147.818 249.198 147.75 249.016 147.675 248.856C147.652 248.796 147.629 248.735 147.616 248.688C147.541 248.528 147.492 248.372 147.427 248.225C146.393 245.526 145.38 242.815 144.388 240.094C144.378 240.081 144.378 240.081 144.384 240.06C136.888 219.312 131.418 197.863 130.052 176.408C130.011 175.763 129.96 175.104 129.951 174.443C129.4 164.769 129.804 155.074 131.16 145.455C131.923 140.19 133.007 134.96 134.409 129.786C138.061 116.422 144.227 103.617 152.683 91.8409C169.544 68.3666 195.281 49.6201 226.78 42.8126C227.586 42.6389 228.377 42.4726 229.193 42.312Z" fill="#F2F2F2"/>
<path d="M229.575 43.1204C199.525 66.034 178.119 97.0477 170.196 130.288C168.483 137.474 167.5 144.888 168.568 152.195C169.637 159.506 173.097 165.849 178.379 171.717C183.207 177.081 188.896 182.106 192.066 188.349C195.407 194.93 194.723 202.043 191.143 208.454C186.763 216.298 179.241 222.37 171.636 228.097C163.193 234.455 154.3 240.949 149.967 249.936C149.442 251.024 147.433 250.286 147.957 249.199C155.497 233.563 175.44 225.954 186.151 212.19C191.149 205.767 193.84 198.058 190.751 190.599C188.05 184.076 182.188 178.891 177.243 173.494C172.05 167.827 168.271 161.766 166.792 154.702C165.278 147.475 165.913 140.015 167.396 132.823C170.742 116.606 177.65 100.749 186.898 86.217C197.525 69.513 211.524 54.4379 228.288 41.6439C229.326 40.8524 230.606 42.3341 229.575 43.1204Z" fill="white"/>
<path d="M172.083 119.371C165.485 117.462 159.92 113.673 156.383 108.68C152.846 103.687 151.567 97.815 152.774 92.1129C153.023 90.9599 155.198 91.2263 154.949 92.3809C153.813 97.6889 155.005 103.159 158.31 107.802C161.615 112.446 166.816 115.959 172.973 117.706C174.31 118.087 173.413 119.749 172.083 119.371Z" fill="white"/>
<path d="M175.498 169.264C188.421 164.218 198.573 155.323 203.93 144.352C204.46 143.264 206.469 144.003 205.94 145.089C200.34 156.496 189.752 165.736 176.29 170.962C175.007 171.46 174.221 169.759 175.498 169.264Z" fill="white"/>
<path d="M199.351 71.3943C201.719 72.5734 204.402 73.247 207.162 73.3546C209.921 73.4622 212.669 73.0005 215.16 72.0109C216.435 71.5002 217.219 73.2017 215.952 73.7091C213.194 74.7918 210.158 75.2987 207.109 75.1854C204.06 75.0721 201.091 74.3421 198.462 73.0591C198.202 72.9554 197.999 72.7735 197.895 72.5505C197.791 72.3274 197.793 72.0799 197.901 71.8583C198.021 71.6383 198.24 71.4662 198.511 71.3794C198.783 71.2925 199.085 71.2978 199.351 71.3943Z" fill="white"/>
<path d="M393.456 117.827C372.912 80.1873 373.67 32.4771 405.553 0.715057C416.22 44.7583 445.351 84.2568 487.793 112.222C504.208 122.958 523.815 133.483 528.299 150.405C531.089 160.933 527.134 172.07 520.297 181.242C513.459 190.413 503.927 197.958 494.504 205.393L493.447 207.938C452.445 184.424 414 155.467 393.456 117.827Z" fill="#F2F2F2"/>
<path d="M406.441 1.1743C399.103 34.4551 404.554 69.8931 422.389 100.385C426.245 106.977 430.849 113.386 437.013 118.688C443.181 123.992 450.554 127.331 459.036 129.383C466.791 131.258 474.985 132.432 482.054 135.837C489.506 139.425 494.13 145.445 495.931 152.349C498.135 160.797 496.544 169.396 494.634 177.761C492.514 187.049 490.134 196.668 493.206 206.005C493.579 207.136 491.438 207.548 491.066 206.419C485.721 190.175 496.113 174.154 494.661 157.822C493.983 150.202 490.528 142.704 482.64 138.289C475.741 134.428 467.293 133.211 459.421 131.368C451.156 129.433 443.733 126.478 437.417 121.575C430.956 116.561 426.04 110.287 421.997 103.805C412.88 89.1876 406.871 73.0825 403.691 56.8674C400.035 38.2304 400.254 19.2127 404.34 0.636999C404.594 -0.512632 406.693 0.0322058 406.441 1.1743Z" fill="white"/>
<path d="M415.961 90.7267C409.305 92.4935 402.108 92.2432 395.654 90.0204C389.201 87.7975 383.912 83.747 380.731 78.5922C380.092 77.5473 382.022 76.6754 382.662 77.7217C385.613 82.5264 390.541 86.2991 396.555 88.3588C402.57 90.4185 409.275 90.6295 415.461 88.9538C416.806 88.591 417.298 90.3659 415.961 90.7267Z" fill="white"/>
<path d="M402.86 38.8218C405.608 38.5827 408.24 37.7821 410.521 36.492C412.803 35.2019 414.661 33.4626 415.931 31.4304C416.578 30.3867 418.441 31.3544 417.798 32.3913C416.383 34.6312 414.327 36.5499 411.81 37.9799C409.294 39.4099 406.392 40.3077 403.36 40.5947C403.077 40.6416 402.783 40.5975 402.538 40.4713C402.293 40.3451 402.115 40.1463 402.04 39.9153C401.975 39.6802 402.025 39.4336 402.179 39.2288C402.332 39.0241 402.577 38.8778 402.86 38.8218Z" fill="white"/>
<path d="M131.611 396.976L139.195 401.841L168.681 406.079L201.456 338.597C201.456 338.597 221.526 286.591 277.723 297.23L458.356 294.57C458.356 294.57 513.817 289.862 522.983 311.527C524.719 315.631 571.553 406.286 571.553 406.286L604.389 402.447L600.454 325.159L522.464 175.208L386.906 168.197L247.216 176.205L131.611 396.976Z" fill="#3F3D56"/>
<path d="M281.737 301.885C310.557 301.885 333.92 282.533 333.92 258.662C333.92 234.79 310.557 215.439 281.737 215.439C252.917 215.439 229.554 234.79 229.554 258.662C229.554 282.533 252.917 301.885 281.737 301.885Z" fill="#2F2E41"/>
<path d="M220.723 117.023L242.209 113.533C242.209 113.533 403.98 94.4136 506.231 117.023L498.497 134.977L227.948 133.647L220.723 117.023Z" fill="#E6E6E6"/>
<path d="M438.839 209.786H301.551C284.881 209.786 270.474 200.226 267.295 187.053L252.27 124.809C251.938 123.451 251.951 122.05 252.309 120.696C252.667 119.342 253.362 118.065 254.35 116.946C255.383 115.773 256.696 114.787 258.208 114.051C259.72 113.316 261.399 112.845 263.139 112.669C335.547 105.225 407.246 105.212 476.247 112.631C477.963 112.805 479.618 113.269 481.108 113.996C482.598 114.723 483.892 115.696 484.909 116.854C485.89 117.957 486.587 119.215 486.956 120.55C487.325 121.886 487.358 123.27 487.054 124.616L473.184 186.669C470.191 200.064 455.746 209.786 438.839 209.786Z" fill="#6C63FF"/>
<path d="M159.653 127.156L160.251 118.249C160.344 116.861 160.841 115.513 161.701 114.319C162.561 113.126 163.757 112.123 165.187 111.396C173.855 106.991 197.238 97.293 227.078 102.377C229.173 102.736 231.084 103.621 232.551 104.911C234.018 106.202 234.97 107.835 235.276 109.589L236.075 114.224L159.653 127.156Z" fill="#3F3D56"/>
<path d="M135.388 402.785C133.546 402.801 131.737 402.38 130.176 401.571C109.713 391.673 96.9561 373.536 92.2877 347.677C88.4316 326.318 90.0419 299.508 97.0736 267.992C109.54 212.116 135.67 156.265 146.325 134.847C147.736 132.02 149.93 129.507 152.729 127.51C155.527 125.514 158.853 124.09 162.438 123.353C184.404 118.878 222.751 111.37 232.765 111.37C246.489 111.37 253.915 122.071 253.989 122.179L254.03 122.268L266.082 165.558V166.183C272.731 184.817 267.791 198.278 262.472 206.289C256.699 214.985 249.229 219.327 249.154 219.369C237.425 226.766 218.314 250.594 199.295 281.546C179.531 313.712 164.88 345.451 160.104 366.449C154.258 392.15 145.688 400.018 139.529 402.092C138.216 402.544 136.809 402.78 135.388 402.785Z" fill="#E6E6E6"/>
<path d="M434.313 204.467H304.594C296.938 204.458 289.523 202.248 283.616 198.214C277.709 194.179 273.675 188.572 272.205 182.348L258.009 121.812C257.694 120.472 257.713 119.092 258.067 117.759C258.42 116.425 259.1 115.166 260.064 114.059C261.028 112.952 262.256 112.02 263.672 111.321C265.088 110.622 266.662 110.171 268.297 109.996C336.716 102.756 404.465 102.743 469.663 109.958C471.274 110.14 472.825 110.59 474.221 111.282C475.617 111.973 476.829 112.892 477.785 113.982C478.741 115.072 479.42 116.311 479.782 117.624C480.144 118.938 480.181 120.298 479.891 121.624L466.787 181.975C465.422 188.285 461.421 193.996 455.484 198.108C449.547 202.22 442.052 204.471 434.313 204.467Z" fill="#E6E6E6"/>
<path d="M281.737 277.281C299.029 277.281 313.047 265.67 313.047 251.347C313.047 237.024 299.029 225.413 281.737 225.413C264.445 225.413 250.427 237.024 250.427 251.347C250.427 265.67 264.445 277.281 281.737 277.281Z" fill="#3F3D56"/>
<path d="M281.737 268.636C293.265 268.636 302.61 260.896 302.61 251.347C302.61 241.799 293.265 234.058 281.737 234.058C270.209 234.058 260.864 241.799 260.864 251.347C260.864 260.896 270.209 268.636 281.737 268.636Z" fill="#2F2E41"/>
<path d="M349.976 220.093C351.306 220.093 352.385 219.2 352.385 218.099C352.385 216.997 351.306 216.104 349.976 216.104C348.646 216.104 347.568 216.997 347.568 218.099C347.568 219.2 348.646 220.093 349.976 220.093Z" fill="#2F2E41"/>
<path d="M360.413 220.093C361.743 220.093 362.821 219.2 362.821 218.099C362.821 216.997 361.743 216.104 360.413 216.104C359.083 216.104 358.004 216.997 358.004 218.099C358.004 219.2 359.083 220.093 360.413 220.093Z" fill="#2F2E41"/>
<path d="M355.596 227.408C356.926 227.408 358.004 226.515 358.004 225.413C358.004 224.311 356.926 223.418 355.596 223.418C354.266 223.418 353.188 224.311 353.188 225.413C353.188 226.515 354.266 227.408 355.596 227.408Z" fill="#2F2E41"/>
<path d="M365.23 227.408C366.56 227.408 367.638 226.515 367.638 225.413C367.638 224.311 366.56 223.418 365.23 223.418C363.9 223.418 362.821 224.311 362.821 225.413C362.821 226.515 363.9 227.408 365.23 227.408Z" fill="#2F2E41"/>
<path d="M374.863 227.408C376.194 227.408 377.272 226.515 377.272 225.413C377.272 224.311 376.194 223.418 374.863 223.418C373.533 223.418 372.455 224.311 372.455 225.413C372.455 226.515 373.533 227.408 374.863 227.408Z" fill="#2F2E41"/>
<path d="M384.497 227.408C385.827 227.408 386.906 226.515 386.906 225.413C386.906 224.311 385.827 223.418 384.497 223.418C383.167 223.418 382.089 224.311 382.089 225.413C382.089 226.515 383.167 227.408 384.497 227.408Z" fill="#2F2E41"/>
<path d="M370.849 220.093C372.18 220.093 373.258 219.2 373.258 218.099C373.258 216.997 372.18 216.104 370.849 216.104C369.519 216.104 368.441 216.997 368.441 218.099C368.441 219.2 369.519 220.093 370.849 220.093Z" fill="#2F2E41"/>
<path d="M381.286 220.093C382.616 220.093 383.694 219.2 383.694 218.099C383.694 216.997 382.616 216.104 381.286 216.104C379.956 216.104 378.878 216.997 378.878 218.099C378.878 219.2 379.956 220.093 381.286 220.093Z" fill="#2F2E41"/>
<path d="M391.723 220.093C393.053 220.093 394.131 219.2 394.131 218.099C394.131 216.997 393.053 216.104 391.723 216.104C390.392 216.104 389.314 216.997 389.314 218.099C389.314 219.2 390.392 220.093 391.723 220.093Z" fill="#2F2E41"/>
<path d="M380.483 279.609H359.61C358.652 279.609 357.733 279.293 357.055 278.732C356.378 278.171 355.997 277.41 355.997 276.616C355.997 275.822 356.378 275.061 357.055 274.5C357.733 273.939 358.652 273.624 359.61 273.624H380.483C381.441 273.624 382.36 273.939 383.038 274.5C383.715 275.061 384.096 275.822 384.096 276.616C384.096 277.41 383.715 278.171 383.038 278.732C382.36 279.293 381.441 279.609 380.483 279.609Z" fill="#2F2E41"/>
<path d="M242.274 149.531C240.927 149.528 239.62 149.149 238.565 148.455C237.51 147.761 236.767 146.793 236.458 145.707L233.257 134.451C232.895 133.171 233.161 131.825 233.996 130.707C234.832 129.59 236.168 128.793 237.713 128.492C239.257 128.191 240.883 128.41 242.233 129.1C243.582 129.791 244.546 130.898 244.911 132.177L248.112 143.434C248.318 144.162 248.323 144.92 248.125 145.65C247.928 146.381 247.533 147.065 246.972 147.651C246.411 148.237 245.696 148.711 244.883 149.036C244.069 149.362 243.177 149.531 242.274 149.531Z" fill="#3F3D56"/>
<path d="M198.107 182.758C196.137 182.758 194.214 182.256 192.601 181.319L185.882 177.423C184.618 176.689 183.585 175.714 182.873 174.58C182.16 173.446 181.787 172.186 181.787 170.908V158.976C181.79 156.58 182.94 154.283 184.986 152.589C187.031 150.895 189.804 149.942 192.697 149.939H202.989C205.881 149.942 208.655 150.895 210.7 152.589C212.745 154.283 213.896 156.58 213.899 158.976V171.025C213.896 172.271 213.542 173.498 212.863 174.61C212.185 175.721 211.202 176.686 209.993 177.427L203.802 181.206C202.152 182.214 200.156 182.758 198.107 182.758Z" fill="#3F3D56"/>
<path d="M202.989 226.411H192.697C189.804 226.408 187.031 225.455 184.986 223.761C182.94 222.066 181.79 219.769 181.787 217.373V205.442C181.787 204.163 182.16 202.903 182.873 201.769C183.585 200.635 184.618 199.66 185.882 198.927L192.601 195.031C194.247 194.075 196.214 193.572 198.223 193.593C200.233 193.613 202.184 194.155 203.802 195.144L209.993 198.923C211.202 199.663 212.185 200.628 212.863 201.74C213.542 202.851 213.896 204.079 213.899 205.324V217.373C213.896 219.769 212.745 222.066 210.7 223.761C208.655 225.455 205.881 226.408 202.989 226.411Z" fill="#3F3D56"/>
<path d="M235.101 201.474H220.696C219.153 201.474 217.632 201.165 216.263 200.575C214.894 199.984 213.716 199.129 212.831 198.082L208.127 192.517C206.974 191.153 206.366 189.524 206.391 187.86C206.415 186.195 207.07 184.579 208.263 183.239L212.826 178.111C213.72 177.109 214.885 176.295 216.227 175.733C217.569 175.171 219.051 174.878 220.555 174.875H235.101C237.994 174.878 240.767 175.831 242.813 177.525C244.858 179.219 246.008 181.517 246.012 183.912V192.437C246.008 194.833 244.858 197.13 242.813 198.824C240.767 200.518 237.994 201.471 235.101 201.474Z" fill="#3F3D56"/>
<path d="M174.187 201.474H159.782C156.889 201.471 154.116 200.518 152.07 198.824C150.025 197.13 148.875 194.833 148.871 192.437V183.912C148.875 181.517 150.025 179.219 152.07 177.525C154.116 175.831 156.889 174.878 159.782 174.875H174.328C175.832 174.878 177.314 175.171 178.656 175.733C179.998 176.295 181.163 177.109 182.057 178.111L186.62 183.239C187.813 184.579 188.468 186.195 188.492 187.86C188.517 189.524 187.909 191.153 186.756 192.517L182.052 198.082C181.167 199.129 179.99 199.984 178.62 200.575C177.251 201.165 175.731 201.474 174.187 201.474Z" fill="#3F3D56"/>
<path d="M198.08 49.1014C195.698 49.1014 193.37 48.5164 191.39 47.4204C189.409 46.3243 187.866 44.7665 186.954 42.9439C186.043 41.1213 185.804 39.1157 186.269 37.1808C186.734 35.246 187.881 33.4687 189.565 32.0737C191.249 30.6787 193.395 29.7287 195.731 29.3438C198.067 28.959 200.488 29.1565 202.688 29.9115C204.889 30.6664 206.769 31.9449 208.093 33.5852C209.416 35.2255 210.122 37.154 210.122 39.1268C210.119 41.7713 208.849 44.3066 206.591 46.1766C204.334 48.0465 201.273 49.0984 198.08 49.1014ZM198.08 30.4821C196.016 30.4821 193.998 30.9891 192.282 31.939C190.565 32.8889 189.228 34.239 188.438 35.8186C187.648 37.3982 187.441 39.1364 187.844 40.8133C188.247 42.4902 189.241 44.0305 190.7 45.2395C192.16 46.4484 194.019 47.2718 196.044 47.6053C198.068 47.9389 200.167 47.7677 202.074 47.1134C203.981 46.4591 205.611 45.3511 206.758 43.9295C207.904 42.5079 208.517 40.8365 208.517 39.1268C208.513 36.8349 207.413 34.6375 205.456 33.0169C203.5 31.3963 200.847 30.4847 198.08 30.4821Z" fill="#E6E6E6"/>
<path d="M170.842 32.5832L146.642 32.2998L159.039 15.0816L170.842 32.5832ZM149.445 31.0023L168.084 31.2208L158.993 17.7415L149.445 31.0023Z" fill="#E6E6E6"/>
<path d="M135.223 56.8426H115.956V40.8832H135.223V56.8426ZM117.562 55.5126H133.618V42.2132H117.562V55.5126Z" fill="#E6E6E6"/>
<path d="M152.65 86.5562L143.823 79.2588L151.607 72.8238L150.472 71.8822L142.686 78.3192L134.899 71.8822L133.765 72.8238L141.549 79.2588L132.722 86.5562L133.856 87.4978L142.686 80.1984L151.515 87.4978L152.65 86.5562Z" fill="#E6E6E6"/>
</svg>
