<svg width="632" height="438" viewBox="0 0 632 438" fill="none" xmlns="http://www.w3.org/2000/svg">
<g clip-path="url(#clip0_2_48)">
<path d="M129.951 273.169C130.737 271.523 132.045 270.222 133.132 268.768C132.975 268.904 132.81 269.032 132.64 269.15C131.836 269.506 131.091 269.995 130.436 270.597C130.035 271.178 129.764 271.845 129.643 272.549L127.769 280.135C128.137 279.653 128.504 279.178 128.879 278.704C128.855 276.8 129.221 274.914 129.951 273.169Z" fill="#F2F2F2"/>
<path d="M203.79 273.192C203.779 272.193 203.585 271.206 203.217 270.283C202.837 269.533 202.357 268.843 201.792 268.232L200.205 266.349C199.397 286.343 197.678 306.391 201.249 325.972C201.829 329.141 202.6 332.402 204.554 334.905C205.077 335.435 205.464 336.093 205.678 336.819C208.617 324.877 206.964 311.941 205.23 299.586C205.062 298.245 204.804 296.917 204.459 295.613C203.154 290.605 202.849 285.371 203.563 280.235C203.86 277.901 203.936 275.542 203.79 273.192Z" fill="#F2F2F2"/>
<path d="M212.885 230.991C215.008 234.635 216.331 238.952 217.521 243.078L218.028 244.862C217.785 238.814 217.668 232.76 217.624 226.705C216.478 227.766 215.324 228.815 214.164 229.851L212.885 230.991Z" fill="#F2F2F2"/>
<path d="M229.966 435.045C230.287 430.805 229.973 426.539 229.033 422.399C228.386 419.774 227.387 417.21 227.299 414.507C227.317 412.702 227.529 410.905 227.931 409.149C230.95 393.143 232.251 376.318 227.681 360.717C226.454 356.538 224.831 352.496 223.582 348.332C223.013 349.894 222.32 351.405 221.51 352.848C221.337 352.176 221.023 351.552 220.59 351.022C220.156 350.492 219.615 350.07 219.005 349.786C219.039 350.529 219.022 351.273 218.953 352.014C218.735 354.515 218.394 357.004 217.932 359.469C217.81 360.454 217.503 361.403 217.029 362.263C216.422 363.143 215.607 363.844 214.663 364.3C215.089 365.31 215.515 366.313 215.934 367.362L212.871 368.265C214.884 372.858 213.209 378.101 212.136 382.977C208.294 399.963 211.754 418.105 209.932 435.283L229.966 435.045Z" fill="#F2F2F2"/>
<path d="M218.843 192.028C219.629 190.383 220.937 189.081 222.024 187.627C221.866 187.763 221.702 187.891 221.532 188.01C220.728 188.365 219.983 188.854 219.328 189.456C218.927 190.037 218.656 190.704 218.535 191.408L216.661 198.994C217.029 198.512 217.396 198.037 217.771 197.563C217.747 195.659 218.113 193.773 218.843 192.028Z" fill="#F2F2F2"/>
<path d="M260.645 342.522L258.132 434.724L264.744 434.647C263.58 423.427 263.05 412.144 263.157 400.859C263.157 397.575 263.267 394.253 262.613 391.045C262.151 388.803 261.342 386.652 260.902 384.401C260.469 381.708 260.304 378.977 260.409 376.249L260.645 342.522Z" fill="#F2F2F2"/>
<path d="M203.827 342.575C203.93 342.315 204.033 342.07 204.128 341.81C204.474 340.876 204.782 339.934 205.069 338.985L205.01 339.092C204.43 340.087 203.798 341.044 203.144 341.986C203.379 342.17 203.607 342.369 203.827 342.575Z" fill="#F2F2F2"/>
<path d="M19.1302 436.216C18.1866 435.761 17.3718 435.06 16.7647 434.18C16.2903 433.32 15.9832 432.37 15.861 431.386C15.3995 428.921 15.0587 426.432 14.8399 423.93C14.7712 423.19 14.754 422.446 14.7885 421.703C14.1785 421.987 13.6371 422.409 13.2037 422.939C12.7704 423.469 12.4559 424.092 12.2833 424.765C10.1355 420.804 8.73413 416.452 8.15463 411.943C7.93424 412.709 7.7065 413.551 7.41999 414.354C5.89193 419.093 3.67329 423.678 3.23251 428.654C3.02064 431.653 3.26862 434.668 3.96715 437.587L18.5572 437.426L19.1302 436.216Z" fill="#F2F2F2"/>
<path d="M28.7247 410.94C29.0112 411.89 29.3197 412.831 29.665 413.765C29.7605 414.025 29.8634 414.27 29.9662 414.53C30.1866 414.324 30.4143 414.125 30.6494 413.941C29.9956 412.999 29.3638 412.043 28.7834 411.047L28.7247 410.94Z" fill="#F2F2F2"/>
<path d="M133.977 426.862C132.947 422.302 132.242 417.668 131.869 412.999C130.703 401.772 129.537 390.545 128.372 379.318C128.335 379.02 128.306 378.729 128.276 378.43C128.232 378.576 128.196 378.721 128.151 378.867C127.263 381.584 125.499 383.881 123.744 386.116C121.988 388.351 119.791 390.655 117.213 390.004C116.155 389.642 115.196 389.022 114.414 388.198L108.536 382.908C107.376 381.888 106.222 380.839 105.076 379.762C105.025 387.149 104.863 394.536 104.496 401.908C104.378 404.204 104.195 406.677 103.137 408.72C105.305 415.739 106.507 423.043 106.707 430.414C106.759 432.412 106.707 434.402 106.648 436.4L123.868 436.209H123.971L136.923 436.063C135.843 433.047 134.756 430.008 133.977 426.862Z" fill="#F2F2F2"/>
<path d="M104.885 350.659C105.253 351.133 105.62 351.608 105.995 352.09L104.121 344.535C104 343.831 103.729 343.163 103.328 342.583C102.673 341.98 101.928 341.492 101.124 341.136C100.954 341.017 100.789 340.89 100.632 340.753C101.719 342.208 103.027 343.509 103.813 345.155C104.539 346.89 104.905 348.766 104.885 350.659Z" fill="#F2F2F2"/>
<path d="M126.183 317.031C126.645 322.344 126.917 327.679 127.174 333.014C127.431 338.35 127.696 343.547 127.953 348.814C128.552 344.742 129.461 340.726 130.671 336.804C129.613 334.76 129.43 332.325 129.312 329.991C128.945 322.619 128.783 315.232 128.732 307.845C127.608 308.894 126.469 309.92 125.323 310.907C125.75 312.924 126.038 314.971 126.183 317.031Z" fill="#F2F2F2"/>
<path d="M28.5851 371.572C26.8513 383.927 25.1763 396.833 28.1369 408.805C28.3517 408.079 28.7382 407.421 29.2609 406.891C31.2151 404.388 31.9865 401.127 32.5668 397.958C36.1372 378.377 34.4181 358.329 33.61 338.335L32.0452 340.218C31.4669 340.816 30.9723 341.496 30.5759 342.238C30.2046 343.15 30.0026 344.127 29.9809 345.117C29.8364 347.461 29.9127 349.815 30.2086 352.144C30.9354 357.293 30.6378 362.544 29.3344 367.568C28.9955 368.883 28.7451 370.221 28.5851 371.572Z" fill="#F2F2F2"/>
<path d="M294.24 434.318L299.999 434.249C296.929 415.824 301.359 396.036 297.186 377.604C296.532 374.733 295.716 371.725 295.511 368.808C294.042 372.881 292.359 376.892 291.977 381.194C291.309 388.65 294.673 395.784 295.922 403.148C297.641 413.306 295.312 423.663 294.277 433.92C294.262 434.096 294.255 434.188 294.24 434.318Z" fill="#F2F2F2"/>
<path d="M171.679 435.704C171.679 431.692 171.703 427.679 171.752 423.663C171.64 427.684 171.532 431.7 171.429 435.711L171.679 435.704Z" fill="#F2F2F2"/>
<path d="M337.532 418.304C337.562 423.479 337.594 428.654 337.628 433.828H337.951L337.532 418.304Z" fill="#F2F2F2"/>
<path d="M352.35 419.651V438.023H-25.9917V419.651C-25.9917 418.23 -25.4499 416.867 -24.4855 415.863C-23.5211 414.858 -22.2131 414.293 -20.8492 414.293H347.208C348.572 414.293 349.88 414.858 350.844 415.863C351.808 416.867 352.35 418.23 352.35 419.651Z" fill="#3F3D56"/>
<path d="M208.926 146.605C211.732 149.613 214.428 153.088 214.957 157.245C208.977 158.875 202.857 155.813 197.267 153.081C179.966 144.603 161.697 138.463 142.903 134.809C141.434 134.525 139.862 134.212 138.752 133.155C136.659 131.157 137.041 126.12 138.987 124.046C141.089 121.811 144.975 122.132 147.803 121.972C159.084 121.376 170.36 123.262 180.896 127.506C191.431 131.75 200.992 138.257 208.955 146.605H208.926Z" fill="#192534"/>
<path d="M333.499 437.992H183.228C181.222 433.224 179.644 428.274 178.511 423.203C178.129 421.626 177.777 420.034 177.424 418.45C177.115 417.056 176.822 415.656 176.542 414.263C175.69 410.073 174.956 405.865 174.339 401.64C173.746 397.659 173.256 393.666 172.869 389.66C172.487 385.827 172.191 381.982 171.98 378.124C171.98 378.017 171.98 377.91 171.98 377.795C171.892 375.966 171.98 373.968 173.185 372.674C174.243 371.564 175.859 371.319 177.365 371.212C189.854 370.324 201.991 375.039 214.45 374.343C217.829 374.136 220.548 373.577 223.692 374.251C224.189 374.348 224.68 374.478 225.161 374.641C225.896 374.879 226.579 375.131 227.277 375.407C232.06 377.19 236.519 379.441 241.661 380.444C250.418 382.166 259.403 381.829 268.292 382.495C269.027 382.541 269.762 382.602 270.496 382.679C271.4 382.755 272.303 382.855 273.2 382.97C280.817 384.022 288.295 385.974 295.489 388.787C299.368 390.249 303.188 391.903 306.957 393.656C308.036 394.161 309.109 394.666 310.182 395.187C312.092 396.113 314.031 397.093 315.927 398.157C316.661 398.562 317.396 398.976 318.086 399.412C323.795 402.864 328.952 407.151 331.956 412.969C332.184 413.398 332.39 413.834 332.588 414.278C332.787 414.722 332.934 415.097 333.095 415.518C335.718 422.614 334.8 430.269 333.499 437.992Z" fill="#202F42"/>
<path opacity="0.1" d="M333.499 437.992H183.228C181.222 433.224 179.644 428.274 178.511 423.203C178.129 421.626 177.777 420.034 177.424 418.45C177.115 417.056 176.822 415.656 176.542 414.263C175.69 410.073 174.956 405.865 174.339 401.64C173.746 397.659 173.256 393.666 172.869 389.66C172.487 385.827 172.191 381.982 171.98 378.124C171.98 378.017 171.98 377.91 171.98 377.795C171.892 375.966 171.98 373.968 173.185 372.674C174.243 371.564 175.859 371.319 177.365 371.212C189.854 370.324 201.991 375.039 214.45 374.343C217.829 374.136 220.548 373.577 223.692 374.251C224.189 374.348 224.68 374.478 225.161 374.641C225.896 374.879 226.579 375.131 227.277 375.407C232.06 377.19 236.519 379.441 241.661 380.444C250.418 382.166 259.403 381.829 268.292 382.495C269.027 382.541 269.762 382.602 270.496 382.679C271.4 382.755 272.303 382.855 273.2 382.97C280.817 384.022 288.295 385.974 295.489 388.787C299.368 390.249 303.188 391.903 306.957 393.656C308.036 394.161 309.109 394.666 310.182 395.187C312.092 396.113 314.031 397.093 315.927 398.157C316.661 398.562 317.396 398.976 318.086 399.412C323.795 402.864 328.952 407.151 331.956 412.969C332.184 413.398 332.39 413.834 332.588 414.278C332.787 414.722 332.934 415.097 333.095 415.518C335.718 422.614 334.8 430.269 333.499 437.992Z" fill="black"/>
<path d="M196.349 437.992H26.9762C23.1708 433.629 20.6803 427.942 21.2974 422.147C21.519 419.738 21.9069 417.348 22.4582 414.997C22.5169 414.745 22.583 414.5 22.6492 414.232C23.7348 409.782 26.4305 405.941 30.1719 403.515C36.8425 399.052 44.8648 397.307 52.2113 394.414C56.1563 392.883 59.9618 390.946 63.9068 389.407C69.5809 387.276 75.4384 385.717 81.3987 384.753C82.0599 384.638 82.7284 384.524 83.3896 384.424C84.0508 384.325 84.7487 384.202 85.4319 384.103C89.1051 383.551 92.7783 383.1 96.4883 382.656C104.569 381.668 112.775 380.689 120.908 381.439C127.406 382.142 133.801 383.637 139.965 385.894C144.608 387.509 149.192 389.384 153.746 391.252C160.851 394.176 168.013 397.169 174.353 401.555C174.904 401.938 175.441 402.321 175.977 402.727C180.196 405.919 183.897 409.796 186.938 414.209C188.702 416.739 190.253 419.423 191.573 422.231C193.909 427.208 195.518 432.52 196.349 437.992Z" fill="#202F42"/>
<path d="M148.053 129.381C145.276 135.727 140.567 141.476 134.256 143.811C130.899 145.051 127.277 145.273 123.854 146.291C120.43 147.309 116.978 149.414 115.773 152.897C115.33 154.423 115.117 156.011 115.141 157.605C114.619 172.57 114.193 188.124 119.931 201.857C124.89 213.707 133.977 223.069 142.955 231.994C153.46 242.435 164.582 253.022 178.401 257.691C186.482 260.409 195.996 260.707 202.681 255.295C205.429 253.068 207.471 250.059 209.477 247.089C213.884 240.544 218.366 233.908 221.143 226.421C226.836 211.112 224.919 194.057 222.913 177.79C222.901 176.824 222.551 175.896 221.929 175.18C221.15 174.499 220.011 174.591 218.99 174.652C211.842 175.096 204.04 171.276 201.645 164.249C200.617 161.187 200.646 157.911 200.698 154.696L200.977 136.156C200.977 134.158 201.028 132.091 200.308 130.231C199.052 127.001 195.9 125.11 192.881 123.548C183.145 118.474 172.997 114.309 162.555 111.102C157.985 109.701 154.51 107.366 152.476 112.48C150.323 117.8 150.419 123.969 148.053 129.381Z" fill="#FBBEBE"/>
<path opacity="0.1" d="M148.053 129.381C145.276 135.727 140.567 141.476 134.256 143.811C130.899 145.051 127.277 145.273 123.854 146.291C120.43 147.309 116.978 149.414 115.773 152.897C115.33 154.423 115.117 156.011 115.141 157.605C114.619 172.57 114.193 188.124 119.931 201.857C124.89 213.707 133.977 223.069 142.955 231.994C153.46 242.435 164.582 253.022 178.401 257.691C186.482 260.409 195.996 260.707 202.681 255.295C205.429 253.068 207.471 250.059 209.477 247.089C213.884 240.544 218.366 233.908 221.143 226.421C226.836 211.112 224.919 194.057 222.913 177.79C222.901 176.824 222.551 175.896 221.929 175.18C221.15 174.499 220.011 174.591 218.99 174.652C211.842 175.096 204.04 171.276 201.645 164.249C200.617 161.187 200.646 157.911 200.698 154.696L200.977 136.156C200.977 134.158 201.028 132.091 200.308 130.231C199.052 127.001 195.9 125.11 192.881 123.548C183.145 118.474 172.997 114.309 162.555 111.102C157.985 109.701 154.51 107.366 152.476 112.48C150.323 117.8 150.419 123.969 148.053 129.381Z" fill="black"/>
<path d="M196.238 144.438C226.263 144.438 250.602 119.077 250.602 87.7929C250.602 56.5084 226.263 31.1474 196.238 31.1474C166.214 31.1474 141.875 56.5084 141.875 87.7929C141.875 119.077 166.214 144.438 196.238 144.438Z" fill="#FBBEBE"/>
<path d="M201.403 176.604L195.327 192.319C193.954 195.871 192.558 199.461 190.442 202.592C184.602 211.219 173.097 215.169 163.503 211.847C154.444 208.731 146.407 199.897 137.055 202.018C132.207 203.12 128.342 207.177 126.183 211.831C124.023 216.485 123.332 221.721 122.869 226.873C120.732 250.702 122.913 274.737 129.298 297.726C129.959 300.099 130.767 302.587 132.523 304.225C134.668 306.184 137.746 306.475 140.604 306.644C153.827 307.465 167.075 307.95 180.348 308.098C188.502 308.198 196.694 308.167 204.745 306.85C212.797 305.534 220.504 303.023 228.445 301.369C235.872 299.839 243.476 299.127 250.734 296.899C251.917 296.539 253.166 296.08 253.893 295.054C254.456 294.076 254.713 292.939 254.628 291.801C254.628 287.392 253.313 283.105 251.888 278.956C248.214 268.37 243.924 257.951 241.882 246.906C239.068 231.711 240.721 216.057 240.412 200.579C240.31 195.037 239.942 189.403 238.113 184.19C236.284 178.977 232.824 174.185 227.953 171.942C219.556 168.046 205.421 166.301 201.403 176.604Z" fill="#6C63FF"/>
<path d="M173.464 250.97C169.585 247.541 169.791 241.425 169.328 236.143C168.483 226.238 164.347 217.006 160.277 208.004L148.119 181.09C143.035 169.868 137.834 157.092 142.029 145.464C143.432 141.545 145.834 138.054 147.069 134.074C148.303 130.093 148.053 125.118 144.923 122.492C140.942 119.155 135.057 121.428 130.554 123.962C122.274 128.641 114.292 133.87 106.656 139.616C104.584 141.147 102.409 142.961 101.734 145.533C101.315 147.133 101.535 148.886 100.948 150.432C99.8015 153.494 96.2311 154.413 93.1823 155.132C80.6168 158.15 68.7741 163.807 58.3784 171.757C47.9826 179.706 39.2522 189.782 32.7211 201.367C30.5543 205.127 28.8278 209.144 27.5786 213.332C26.1093 218.69 25.7273 224.255 25.3747 229.789C24.4343 244.027 23.5282 258.258 22.6565 272.48C22.2671 278.78 21.8851 285.233 23.5381 291.303C24.6033 295.207 26.4766 298.859 27.27 302.839C28.8789 311.114 25.4848 319.565 21.2459 326.76C17.007 333.956 11.7911 340.707 9.13166 348.646C7.56891 353.697 6.766 358.969 6.75142 364.277C6.36023 382.187 11.1245 399.81 20.4305 414.875C29.4593 416.26 36.218 406.906 44.5121 402.933C56.6705 397.123 72.0246 401.777 83.4483 394.597C86.24 392.844 88.6569 390.456 91.6102 389.009C94.2916 387.7 97.267 387.233 100.198 386.789C111.027 385.159 121.995 383.651 132.875 384.876C148.303 386.613 164.252 393.755 178.761 387.991C182.339 386.567 185.615 384.416 189.208 383.031C202.431 377.925 217.124 384.026 231.207 382.901C229.003 382.778 228.019 380.176 227.608 377.887C226.682 372.809 225.864 367.706 225.154 362.577C224.529 358.13 223.993 353.56 224.97 349.189C225.866 345.132 228.012 341.534 229.812 337.814C235.49 326.102 237.893 312.967 242.763 300.857C245.077 295.085 247.906 289.573 250.653 284.016C261.746 261.204 270.386 237.186 276.417 212.398C270.004 200.403 264.193 187.902 257.779 175.915C255.921 172.44 254.011 168.903 251.168 166.216C247.098 162.328 241.581 160.636 236.269 159.067C231.707 157.712 227.079 156.349 222.311 156.342C217.543 156.334 204.128 151.144 200.911 154.765C197.59 158.5 205.061 170.564 204.892 175.647C204.723 180.73 205.26 185.874 204.452 190.895C203.276 198.221 199.309 204.751 197.509 211.931C196.797 215.329 196.251 218.763 195.871 222.219C194.671 229.947 192.729 237.53 190.075 244.854C189.59 246.396 188.873 247.848 187.951 249.156C184.469 253.596 178.871 251.912 173.464 250.97Z" fill="#192534"/>
<path d="M281.398 331.629C282.794 333.405 284.704 334.622 286.431 336.038C293.226 341.588 297.223 350.031 303.225 356.499C306.251 359.768 309.77 362.501 312.995 365.555C320.496 372.674 326.307 381.469 332.052 390.18C333.521 392.4 334.991 394.674 335.725 397.253C337.011 401.655 335.968 406.562 333.624 410.466C331.281 414.37 327.747 417.355 323.934 419.697C321.944 420.927 319.869 422.002 317.726 422.912C313.319 424.78 309.116 419.72 311.6 415.495C313.176 412.845 314.618 410.111 315.919 407.304C316.749 405.748 317.227 404.015 317.315 402.237C317.256 399.114 314.891 396.465 312.173 395.156C309.454 393.847 306.391 393.625 303.416 393.242C286.59 391.124 270.581 384.487 256.957 373.983C249.243 368.012 241.808 359.263 243.035 349.334C243.946 341.925 249.573 336.03 255.752 332.234C260.77 329.165 266.289 327.089 272.032 326.11C273.648 325.834 277.703 324.678 279.15 325.842C280.436 326.837 280.193 330.098 281.398 331.629Z" fill="#FBBEBE"/>
<path opacity="0.1" d="M281.398 331.629C282.794 333.405 284.704 334.622 286.431 336.038C293.226 341.588 297.223 350.031 303.225 356.499C306.251 359.768 309.77 362.501 312.995 365.555C320.496 372.674 326.307 381.469 332.052 390.18C333.521 392.4 334.991 394.674 335.725 397.253C337.011 401.655 335.968 406.562 333.624 410.466C331.281 414.37 327.747 417.355 323.934 419.697C321.944 420.927 319.869 422.002 317.726 422.912C313.319 424.78 309.116 419.72 311.6 415.495C313.176 412.845 314.618 410.111 315.919 407.304C316.749 405.748 317.227 404.015 317.315 402.237C317.256 399.114 314.891 396.465 312.173 395.156C309.454 393.847 306.391 393.625 303.416 393.242C286.59 391.124 270.581 384.487 256.957 373.983C249.243 368.012 241.808 359.263 243.035 349.334C243.946 341.925 249.573 336.03 255.752 332.234C260.77 329.165 266.289 327.089 272.032 326.11C273.648 325.834 277.703 324.678 279.15 325.842C280.436 326.837 280.193 330.098 281.398 331.629Z" fill="black"/>
<path d="M220.151 55.7882C212.804 63.6267 201.006 63.9559 190.486 63.7645L190.831 59.4701L176.036 64.9969C179.871 62.0267 183.161 58.36 185.748 54.173C183.83 52.4201 180.825 52.4736 178.548 53.6831C176.271 54.8926 174.596 57.0282 173.163 59.2328C168.966 65.7828 166.295 73.2632 165.361 81.0786C164.427 88.894 165.258 96.8286 167.785 104.251C164.847 105.95 161.1 105.453 158.279 103.6C155.458 101.748 153.489 98.7316 152.152 95.5472C151.278 93.4651 150.367 91.0003 148.281 90.3496C146.532 89.8061 144.607 90.9161 143.638 92.5312C142.768 94.2173 142.416 96.1414 142.631 98.0427C142.903 102.498 146.025 106.723 146.65 111.132C147.274 115.542 153.592 118.971 150.323 121.849C149.383 122.683 139.737 124.957 138.517 124.758C136.864 124.49 135.77 122.829 135.079 121.244C131.788 113.712 132.971 104.909 131.024 96.8868C129.459 90.4338 125.933 84.708 122.458 79.12C121.525 77.4918 120.424 75.9748 119.174 74.596C118.021 73.4172 116.595 72.3991 116.037 70.8222C115.479 69.2453 116.507 66.9948 118.101 67.2474C115.528 64.6549 112.76 62.282 109.822 60.1514C112.731 56.3138 115.577 52.4277 118.359 48.4931C119.314 47.1459 120.305 45.4312 119.607 43.9003C119.2 43.1989 118.625 42.6188 117.94 42.2162L110.344 36.8579C110.175 33.2218 117.279 34.5614 118.373 31.1244C118.566 30.211 118.5 29.2588 118.182 28.384L115.596 18.5552L125.419 23.194C126.609 23.7605 127.88 24.3346 129.18 24.1356C131.773 23.7452 133.022 20.5455 133.154 17.8127C133.287 15.0799 132.868 12.1405 134.168 9.75987C138.615 9.57615 143.06 9.60932 147.502 9.85937C147.782 7.53005 147.19 5.17776 145.849 3.29157L178.673 1.39317C184.278 1.07166 190.038 0.773136 195.364 2.61029C197.171 3.23798 198.993 4.14124 200.889 3.91925C202.784 3.69726 204.694 1.87543 204.15 -0.0229645C209.07 2.87106 213.569 6.47944 217.514 10.6938C218.578 12.015 219.865 13.1227 221.312 13.9623C222.781 14.6819 224.794 14.6513 225.911 13.3806C226.807 12.3625 227.255 10.5866 228.577 10.5253C229.4 10.5253 230.047 11.199 230.568 11.8802C232.445 14.382 233.973 17.1471 235.108 20.0938C237.464 19.763 239.771 19.1306 241.977 18.2108C239.685 20.224 239.626 23.9748 240.721 26.8837C241.816 29.7925 243.799 32.242 245.129 35.0284C246.452 38.0209 247.341 41.2018 247.766 44.4667C248.435 48.5544 248.442 53.7061 244.96 55.7116C241.933 57.4569 238.179 55.5968 235.41 53.4152C227.784 47.4598 226.329 49.205 220.151 55.7882Z" fill="#001F3F"/>
<path d="M258.566 417.447L309.469 412.663C311.515 412.471 313.41 411.461 314.756 409.843C316.101 408.226 316.792 406.127 316.683 403.99L316.647 403.224C316.562 401.522 315.975 399.889 314.965 398.549C313.954 397.209 312.571 396.227 311.004 395.738L302.776 393.166C302.035 392.934 301.266 392.815 300.492 392.814H281.824C281.314 392.815 280.805 392.867 280.304 392.967C276.359 393.771 258.206 397.491 257.53 398.172C257.17 398.555 255.01 400.239 252.923 401.846C251.675 402.807 250.725 404.129 250.19 405.648C249.656 407.166 249.562 408.815 249.919 410.389L250.073 411.093C250.509 413.045 251.611 414.765 253.173 415.934C254.735 417.102 256.651 417.64 258.566 417.447Z" fill="#464A5F"/>
<path d="M233.705 400.867L254.275 394.743L292.477 389.384C292.477 389.384 316.72 382.495 318.924 403.929L316.867 407.557C316.867 407.557 318.924 393.977 293.946 397.805C293.946 397.805 249.037 396.235 250.925 414.645C250.925 414.63 235.174 411.583 233.705 400.867Z" fill="#6C63FF"/>
<path d="M261.622 387.861C264.462 387.861 266.764 387.518 266.764 387.096C266.764 386.673 264.462 386.33 261.622 386.33C258.782 386.33 256.479 386.673 256.479 387.096C256.479 387.518 258.782 387.861 261.622 387.861Z" fill="#6C63FF"/>
<path d="M307.537 387.478H303.864V394.368H307.537V387.478Z" fill="#6C63FF"/>
<path d="M263.458 387.478H259.785V394.368H263.458V387.478Z" fill="#6C63FF"/>
<path d="M310.439 388.103C310.802 387.116 308.639 385.335 305.608 384.125C302.577 382.915 299.826 382.735 299.463 383.722C299.1 384.709 301.263 386.489 304.294 387.699C307.325 388.909 310.076 389.09 310.439 388.103Z" fill="#6C63FF"/>
<path d="M97.0833 399.741C98.6555 401.448 100.257 403.186 102.277 404.258C104.276 405.182 106.404 405.769 108.581 405.995C130.835 409.568 153.012 413.563 175.11 417.983C181.332 419.238 187.599 420.539 193.476 423.058C196.473 424.352 199.353 425.959 202.292 427.314C219.189 435.038 238.289 434.54 256.722 433.897C260.329 433.775 264.068 433.621 267.323 432.052C269.754 430.896 271.98 428.699 272.201 425.928C272.583 421.114 267.33 418.274 263.135 416.199C253.122 411.277 244.394 403.27 239.119 393.12C238.179 391.329 237.415 388.917 238.737 387.402C239.729 386.269 241.412 386.261 242.888 386.322C249.059 386.573 255.23 386.506 261.401 386.123C264.597 385.917 268.829 384.34 268.322 381.056C268.101 379.647 266.985 378.599 265.927 377.68C260.365 372.812 254.055 367.798 246.789 367.943C242.976 368.02 239.34 369.535 235.77 370.814C216.537 377.611 195.827 377.986 175.529 377.849C170.562 377.849 165.56 377.749 160.696 376.693C156.702 375.709 152.788 374.395 148.993 372.766C136.681 367.874 124.317 362.952 112.915 356.086C108.382 353.361 103.328 350.207 98.2735 351.608C96.0058 352.375 93.9425 353.686 92.2494 355.435C86.2326 361.1 81.1562 368.035 82.868 376.731C84.6091 385.871 91.1033 393.235 97.0833 399.741Z" fill="#FBBEBE"/>
<path d="M93.8068 251.912C95.7022 258.304 96.8115 265.07 100.073 270.834C103.534 276.958 109.293 281.704 111.291 288.494C112.702 293.301 112.026 298.445 112.026 303.49C112.026 309.208 113.062 315.102 116.096 319.863C117.624 322.267 119.615 324.303 121.356 326.546C129.077 336.497 131.457 349.786 132.42 362.524C125.073 358.191 116.478 353.721 108.522 356.698C105.304 357.908 102.586 360.235 100.059 362.646C95.1545 367.312 90.6715 372.436 86.6661 377.956C84.565 380.842 82.5006 384.37 83.4116 387.861C79.0625 381.278 74.6546 374.649 71.2753 367.407C68.8803 362.233 67.0217 356.767 64.1492 351.853C60.5348 345.675 55.4437 340.6 51.1607 334.905C41.5368 322.106 36.1372 306.261 33.5145 290.27C30.8919 274.279 30.7817 257.898 30.8625 241.639C30.8625 236.281 30.9727 230.708 33.1399 225.832C34.4255 222.931 36.387 220.42 38.3338 217.947C40.8022 214.801 43.3441 211.594 46.7014 209.527C57.3831 202.975 68.8436 213.837 75.9843 221.27C84.22 229.828 90.3364 240.344 93.8068 251.912Z" fill="#192534"/>
<path d="M277.953 215.169C278.943 216.109 279.742 217.247 280.304 218.514C280.862 220.045 280.715 221.729 280.598 223.359C279.901 233.068 280.562 242.83 282.559 252.34C283.756 258.089 285.27 264.741 281.751 269.342C281.207 269.946 280.716 270.6 280.282 271.294C278.651 274.478 281.663 277.946 283.955 280.679C290.919 289.099 292.036 302.273 286.636 311.88C285.615 313.709 284.366 315.439 283.793 317.46C283.406 319.122 283.253 320.834 283.338 322.543L283.367 335.349C275.646 334.27 267.014 333.428 260.806 338.335C255.568 342.468 253.496 349.664 249.052 354.67C244.74 359.492 238.032 362.6 236.35 368.954L236.438 342.491C236.548 338.975 236.366 335.456 235.894 331.973C235.013 326.5 232.728 321.379 231.391 316.005C229.643 308.978 229.532 301.637 229.43 294.373C229.261 282.378 229.099 270.253 231.487 258.518C232.464 253.741 233.852 249.064 234.925 244.311C236.871 235.737 237.863 226.812 241.279 218.759C244.695 210.706 251.403 203.403 259.822 202.538C268.689 201.612 272.45 209.175 277.953 215.169Z" fill="#192534"/>
<path d="M310.839 386.905C313.298 385.425 313.154 380.367 310.517 375.608C307.88 370.848 303.748 368.189 301.288 369.669C298.829 371.149 298.973 376.207 301.61 380.966C304.247 385.726 308.379 388.385 310.839 386.905Z" fill="#FBBEBE"/>
<path opacity="0.1" d="M310.839 386.905C313.298 385.425 313.154 380.367 310.517 375.608C307.88 370.848 303.748 368.189 301.288 369.669C298.829 371.149 298.973 376.207 301.61 380.966C304.247 385.726 308.379 388.385 310.839 386.905Z" fill="black"/>
</g>
<defs>
<clipPath id="clip0_2_48">
<rect width="765" height="438" fill="white" transform="translate(-133)"/>
</clipPath>
</defs>
</svg>
