<svg width="509" height="249" viewBox="0 0 509 249" fill="none" xmlns="http://www.w3.org/2000/svg">
<g clip-path="url(#clip0_4_291)">
<path d="M425.13 133.549H75.1964C74.2145 133.548 73.2732 133.256 72.5789 132.736C71.8846 132.217 71.494 131.512 71.4929 130.777V2.77204C71.494 2.03711 71.8846 1.33252 72.5789 0.812844C73.2732 0.293167 74.2145 0.000835296 75.1964 -2.28882e-05H425.13C426.112 0.00084166 427.053 0.29318 427.748 0.812856C428.442 1.33253 428.832 2.03711 428.834 2.77204V130.777C428.832 131.512 428.442 132.217 427.748 132.736C427.053 133.256 426.112 133.548 425.13 133.549ZM75.1964 1.10882C74.6073 1.1093 74.0424 1.28468 73.6259 1.59649C73.2093 1.90831 72.9749 2.33107 72.9743 2.77204V130.777C72.9749 131.218 73.2093 131.641 73.6259 131.953C74.0424 132.264 74.6073 132.44 75.1964 132.44H425.13C425.719 132.44 426.284 132.264 426.701 131.953C427.117 131.641 427.352 131.218 427.352 130.777V2.77204C427.352 2.33107 427.117 1.90831 426.701 1.59649C426.284 1.28468 425.719 1.1093 425.13 1.10882H75.1964Z" fill="#001F3F"/>
<path d="M237.855 55.6194C241.027 55.6194 243.599 53.6946 243.599 51.3203C243.599 48.946 241.027 47.0212 237.855 47.0212C234.683 47.0212 232.111 48.946 232.111 51.3203C232.111 53.6946 234.683 55.6194 237.855 55.6194Z" fill="#3F3D56"/>
<path d="M237.855 54.084C239.894 54.084 241.548 52.8467 241.548 51.3203C241.548 49.794 239.894 48.5566 237.855 48.5566C235.816 48.5566 234.163 49.794 234.163 51.3203C234.163 52.8467 235.816 54.084 237.855 54.084Z" fill="#6C63FF"/>
<path d="M262.471 55.6194C265.643 55.6194 268.215 53.6946 268.215 51.3203C268.215 48.946 265.643 47.0212 262.471 47.0212C259.299 47.0212 256.728 48.946 256.728 51.3203C256.728 53.6946 259.299 55.6194 262.471 55.6194Z" fill="#3F3D56"/>
<path d="M262.471 54.084C264.511 54.084 266.164 52.8467 266.164 51.3203C266.164 49.794 264.511 48.5566 262.471 48.5566C260.432 48.5566 258.779 49.794 258.779 51.3203C258.779 52.8467 260.432 54.084 262.471 54.084Z" fill="#6C63FF"/>
<path d="M237.209 51.6274C234.452 51.6206 231.792 52.3856 229.75 53.7721C227.708 55.1586 226.432 57.0664 226.173 59.1208L225.025 67.9312C224.889 68.9769 225.046 70.0324 225.487 71.0298C225.929 72.0273 226.644 72.9445 227.587 73.7227C228.53 74.5009 229.681 75.1227 230.964 75.5483C232.248 75.9738 233.636 76.1937 235.039 76.1937H265.287C266.691 76.1937 268.079 75.9738 269.363 75.5483C270.646 75.1227 271.796 74.5009 272.739 73.7227C273.683 72.9445 274.398 72.0273 274.839 71.0298C275.28 70.0324 275.438 68.9769 275.302 67.9312L274.153 59.1208C273.894 57.0664 272.619 55.1586 270.577 53.7721C268.535 52.3856 265.874 51.6206 263.117 51.6274H237.209Z" fill="#3F3D56"/>
<path d="M253.228 64.0839C254.075 63.2323 255.339 62.667 256.743 62.5117C258.146 62.3564 259.574 62.6239 260.715 63.2556C261.348 62.6188 261.715 61.8557 261.769 61.0627C261.823 60.2697 261.561 59.4826 261.017 58.8011C260.473 58.1195 259.671 57.5742 258.712 57.2341C257.754 56.8939 256.682 56.7744 255.633 56.8905C254.583 57.0066 253.603 57.3532 252.817 57.8863C252.031 58.4194 251.474 59.1152 251.217 59.8854C250.959 60.6557 251.013 61.4658 251.371 62.2132C251.729 62.9605 252.375 63.6116 253.228 64.0839Z" fill="white"/>
<path d="M240.722 64.8581C241.57 64.0065 242.834 63.4412 244.237 63.2859C245.64 63.1306 247.069 63.3981 248.209 64.0297C248.843 63.393 249.21 62.6298 249.263 61.8369C249.317 61.0439 249.056 60.2568 248.511 59.5753C247.967 58.8937 247.165 58.3484 246.207 58.0082C245.248 57.6681 244.176 57.5485 243.127 57.6646C242.077 57.7808 241.098 58.1273 240.312 58.6605C239.526 59.1936 238.968 59.8893 238.711 60.6596C238.454 61.4298 238.507 62.2399 238.865 62.9873C239.223 63.7347 239.87 64.3858 240.722 64.8581Z" fill="white"/>
<path d="M244.269 62.3278C245.359 62.3278 246.243 61.6661 246.243 60.8499C246.243 60.0337 245.359 59.3719 244.269 59.3719C243.178 59.3719 242.294 60.0337 242.294 60.8499C242.294 61.6661 243.178 62.3278 244.269 62.3278Z" fill="#3F3D56"/>
<path d="M257.057 61.2018C258.147 61.2018 259.031 60.5401 259.031 59.7238C259.031 58.9076 258.147 58.2459 257.057 58.2459C255.966 58.2459 255.082 58.9076 255.082 59.7238C255.082 60.5401 255.966 61.2018 257.057 61.2018Z" fill="#3F3D56"/>
<path d="M250.291 67.5955C251.424 67.5955 252.342 66.9081 252.342 66.0601C252.342 65.2121 251.424 64.5247 250.291 64.5247C249.158 64.5247 248.24 65.2121 248.24 66.0601C248.24 66.9081 249.158 67.5955 250.291 67.5955Z" fill="#6C63FF"/>
<path d="M242.104 68.5167C242.208 69.3556 242.726 70.1353 243.557 70.7032C244.388 71.2712 245.473 71.5865 246.598 71.5875H254.804C255.93 71.5865 257.014 71.2712 257.845 70.7032C258.676 70.1352 259.194 69.3556 259.298 68.5167H242.104Z" fill="white"/>
<path d="M123.11 55.773C123.11 56.3379 122.962 56.8974 122.674 57.4194C122.386 57.9415 121.963 58.4159 121.429 58.8156C120.896 59.2152 120.263 59.5323 119.565 59.7486C118.868 59.9649 118.121 60.0762 117.366 60.0762C116.611 60.0762 115.864 59.9649 115.167 59.7486C114.469 59.5323 113.836 59.2152 113.303 58.8156C112.769 58.4159 112.346 57.9415 112.058 57.4194C111.77 56.8974 111.622 56.3379 111.622 55.773C111.622 53.3986 114.194 43.4898 117.366 43.4898C120.538 43.4898 123.11 53.3986 123.11 55.773Z" fill="#E6E6E6"/>
<path d="M121.058 55.773C121.058 56.5059 120.669 57.2089 119.977 57.7272C119.284 58.2455 118.345 58.5367 117.366 58.5367C116.387 58.5367 115.448 58.2455 114.755 57.7272C114.063 57.2089 113.674 56.5059 113.674 55.773C113.674 54.2466 115.327 45.0252 117.366 45.0252C119.405 45.0252 121.058 54.2466 121.058 55.773Z" fill="white"/>
<path d="M136.238 55.773C136.238 56.9132 136.843 58.0067 137.921 58.8129C138.998 59.6191 140.459 60.0721 141.982 60.0721C143.505 60.0721 144.966 59.6191 146.044 58.8129C147.121 58.0067 147.726 56.9132 147.726 55.773C147.726 53.3986 145.154 42.5686 141.982 42.5686C138.81 42.5686 136.238 53.3986 136.238 55.773Z" fill="#E6E6E6"/>
<path d="M138.29 55.7729C138.29 56.5059 138.679 57.2089 139.371 57.7272C140.064 58.2455 141.003 58.5367 141.982 58.5367C142.961 58.5367 143.901 58.2455 144.593 57.7272C145.285 57.2089 145.674 56.5059 145.674 55.7729C145.674 54.2466 144.021 44.104 141.982 44.104C139.943 44.104 138.29 54.2466 138.29 55.7729Z" fill="white"/>
<path d="M116.72 56.08C113.963 56.0733 111.302 56.8382 109.26 58.2247C107.218 59.6112 105.943 61.519 105.684 63.5735L104.536 72.3839C104.399 73.4296 104.557 74.4851 104.998 75.4825C105.44 76.4799 106.155 77.3972 107.098 78.1754C108.041 78.9535 109.191 79.5754 110.475 80.0009C111.758 80.4265 113.146 80.6463 114.55 80.6464H144.798C146.202 80.6463 147.59 80.4265 148.873 80.0009C150.157 79.5754 151.307 78.9535 152.25 78.1754C153.193 77.3972 153.909 76.4799 154.35 75.4825C154.791 74.4851 154.949 73.4296 154.812 72.3839L153.664 63.5735C153.405 61.519 152.13 59.6112 150.088 58.2247C148.046 56.8382 145.385 56.0733 142.628 56.08H116.72Z" fill="#E6E6E6"/>
<path d="M132.739 68.5365C133.586 67.685 134.85 67.1196 136.253 66.9644C137.657 66.8091 139.085 67.0766 140.225 67.7082C140.859 67.0715 141.226 66.3083 141.28 65.5153C141.334 64.7224 141.072 63.9353 140.528 63.2537C139.984 62.5722 139.182 62.0268 138.223 61.6867C137.265 61.3466 136.193 61.227 135.143 61.3431C134.094 61.4592 133.114 61.8058 132.328 62.3389C131.542 62.8721 130.985 63.5678 130.728 64.3381C130.47 65.1083 130.524 65.9184 130.882 66.6658C131.24 67.4132 131.886 68.0642 132.739 68.5365Z" fill="white"/>
<path d="M120.233 69.3107C121.081 68.4592 122.344 67.8938 123.748 67.7385C125.151 67.5833 126.579 67.8507 127.72 68.4824C128.353 67.8456 128.72 67.0825 128.774 66.2895C128.828 65.4965 128.566 64.7095 128.022 64.0279C127.478 63.3464 126.676 62.801 125.717 62.4609C124.759 62.1208 123.687 62.0012 122.638 62.1173C121.588 62.2334 120.608 62.58 119.822 63.1131C119.036 63.6463 118.479 64.342 118.222 65.1122C117.964 65.8825 118.018 66.6926 118.376 67.44C118.734 68.1874 119.38 68.8384 120.233 69.3107Z" fill="white"/>
<path d="M123.78 69.2371C124.87 69.2371 125.754 68.5754 125.754 67.7592C125.754 66.9429 124.87 66.2812 123.78 66.2812C122.689 66.2812 121.805 66.9429 121.805 67.7592C121.805 68.5754 122.689 69.2371 123.78 69.2371Z" fill="#E6E6E6"/>
<path d="M136.978 68.4181C138.068 68.4181 138.952 67.7564 138.952 66.9402C138.952 66.1239 138.068 65.4622 136.978 65.4622C135.887 65.4622 135.003 66.1239 135.003 66.9402C135.003 67.7564 135.887 68.4181 136.978 68.4181Z" fill="#E6E6E6"/>
<path d="M129.802 72.0481C130.935 72.0481 131.853 71.3607 131.853 70.5127C131.853 69.6648 130.935 68.9774 129.802 68.9774C128.669 68.9774 127.75 69.6648 127.75 70.5127C127.75 71.3607 128.669 72.0481 129.802 72.0481Z" fill="white"/>
<path d="M134.092 71.6321C134.794 71.3587 135.594 71.5415 136.28 71.7524C137.032 71.9832 137.761 72.245 138.535 72.4331C139.98 72.8115 141.529 72.9124 143.04 72.7267C145.773 72.3443 148.066 70.5163 147.452 68.3483C147.288 67.7686 146.101 68.0139 146.265 68.5932C146.367 69.0274 146.319 69.474 146.126 69.8905C145.933 70.3071 145.601 70.6799 145.162 70.9738C144.158 71.6169 142.866 71.9508 141.546 71.9078C140.088 71.8556 138.659 71.5817 137.347 71.1027C136.094 70.6873 134.779 70.3271 133.471 70.8366C132.768 71.1104 133.39 71.9057 134.092 71.6321Z" fill="white"/>
<path d="M126.287 70.8366C125.013 70.3401 123.723 70.6699 122.495 71.0746C121.158 71.5668 119.701 71.8502 118.212 71.9078C116.919 71.949 115.651 71.6301 114.654 71.0126C114.197 70.7191 113.85 70.3418 113.646 69.9177C113.443 69.4936 113.39 69.0372 113.493 68.5932C113.657 68.0149 112.471 67.7677 112.306 68.3483C111.693 70.5162 113.985 72.3443 116.718 72.7267C118.229 72.913 119.778 72.812 121.223 72.4331C121.997 72.2441 122.726 71.9835 123.478 71.7524C124.164 71.5416 124.965 71.3589 125.666 71.6321C126.368 71.9055 126.991 71.1108 126.287 70.8366Z" fill="white"/>
<path d="M130.289 75.8866C132.102 75.8866 133.572 75.3367 133.572 74.6583C133.572 73.9799 132.102 73.43 130.289 73.43C128.477 73.43 127.007 73.9799 127.007 74.6583C127.007 75.3367 128.477 75.8866 130.289 75.8866Z" fill="white"/>
<path d="M349.934 63.7149C356.333 63.7149 361.521 59.8321 361.521 55.0424C361.521 50.2528 356.333 46.37 349.934 46.37C343.535 46.37 338.347 50.2528 338.347 55.0424C338.347 59.8321 343.535 63.7149 349.934 63.7149Z" fill="#3F3D56"/>
<path d="M349.934 60.6176C354.048 60.6176 357.382 58.1215 357.382 55.0424C357.382 51.9633 354.048 49.4673 349.934 49.4673C345.82 49.4673 342.485 51.9633 342.485 55.0424C342.485 58.1215 345.82 60.6176 349.934 60.6176Z" fill="#0090F8"/>
<path d="M391.371 63.7149C397.77 63.7149 402.958 59.8321 402.958 55.0424C402.958 50.2528 397.77 46.37 391.371 46.37C384.972 46.37 379.784 50.2528 379.784 55.0424C379.784 59.8321 384.972 63.7149 391.371 63.7149Z" fill="#3F3D56"/>
<path d="M391.371 60.6176C395.485 60.6176 398.82 58.1215 398.82 55.0424C398.82 51.9633 395.485 49.4673 391.371 49.4673C387.257 49.4673 383.922 51.9633 383.922 55.0424C383.922 58.1215 387.257 60.6176 391.371 60.6176Z" fill="#0090F8"/>
<path d="M357.904 52.2787C357.724 52.2787 357.546 52.2818 357.369 52.2881C350.692 52.5227 346.077 57.4141 347.704 62.2663L347.94 62.9692C348.777 65.4662 349.347 68.0051 349.911 70.5446C350.3 72.3047 351.511 73.9042 353.329 75.0581C355.147 76.212 357.453 76.8453 359.836 76.845H381.879C384.352 76.8452 386.739 76.1632 388.583 74.9295C390.428 73.6958 391.6 71.9967 391.877 70.1569C392.265 67.8607 392.857 65.5863 393.648 63.3489L394.011 62.2664C395.638 57.4141 391.023 52.5227 384.346 52.2881C384.169 52.2819 383.991 52.2787 383.812 52.2787H357.904Z" fill="#3F3D56"/>
<path d="M373.922 64.7352C374.77 63.8837 376.034 63.3183 377.437 63.163C378.84 63.0078 380.269 63.2753 381.409 63.9069C382.043 63.2701 382.41 62.507 382.464 61.714C382.517 60.9211 382.256 60.134 381.712 59.4524C381.167 58.7709 380.365 58.2255 379.407 57.8854C378.448 57.5453 377.376 57.4257 376.327 57.5418C375.278 57.6579 374.298 58.0045 373.512 58.5376C372.726 59.0708 372.169 59.7665 371.911 60.5368C371.654 61.307 371.707 62.1171 372.065 62.8645C372.423 63.6119 373.07 64.2629 373.922 64.7352Z" fill="white"/>
<path d="M361.417 65.5094C362.264 64.6578 363.528 64.0925 364.931 63.9372C366.335 63.7819 367.763 64.0494 368.903 64.6811C369.537 64.0443 369.904 63.2811 369.958 62.4882C370.012 61.6952 369.75 60.9081 369.206 60.2266C368.662 59.545 367.859 58.9997 366.901 58.6596C365.942 58.3194 364.871 58.1999 363.821 58.316C362.772 58.4321 361.792 58.7786 361.006 59.3118C360.22 59.8449 359.663 60.5407 359.405 61.3109C359.148 62.0812 359.202 62.8913 359.56 63.6386C359.918 64.386 360.564 65.0371 361.417 65.5094Z" fill="white"/>
<path d="M362.912 62.9791C364.002 62.9791 364.886 62.3174 364.886 61.5012C364.886 60.685 364.002 60.0233 362.912 60.0233C361.821 60.0233 360.937 60.685 360.937 61.5012C360.937 62.3174 361.821 62.9791 362.912 62.9791Z" fill="#3F3D56"/>
<path d="M375.7 62.4672C376.79 62.4672 377.674 61.8055 377.674 60.9893C377.674 60.1731 376.79 59.5114 375.7 59.5114C374.609 59.5114 373.725 60.1731 373.725 60.9893C373.725 61.8055 374.609 62.4672 375.7 62.4672Z" fill="#3F3D56"/>
<path d="M373.037 66.7114C373.037 66.9586 372.957 67.2021 372.804 67.4213C372.651 67.6404 372.43 67.8288 372.16 67.9703C371.889 68.1118 371.576 68.2022 371.249 68.234C370.921 68.2658 370.589 68.2379 370.278 68.1528C369.968 68.0676 369.691 67.9277 369.468 67.7449C369.246 67.5621 369.086 67.3419 369.002 67.1029C368.917 66.8639 368.912 66.6132 368.985 66.3721C369.058 66.131 369.207 65.9067 369.421 65.7182C369.797 65.3865 370.231 66.4043 370.858 66.4043C371.507 66.4043 372.213 65.4017 372.589 65.7541C372.879 66.0258 373.037 66.3635 373.037 66.7114Z" fill="#0090F8"/>
<path d="M366.472 68.861H376.319C376.319 69.8383 375.8 70.7755 374.877 71.4666C373.953 72.1577 372.701 72.5459 371.395 72.5459C370.09 72.5459 368.837 72.1577 367.914 71.4666C366.991 70.7755 366.472 69.8383 366.472 68.861Z" fill="white"/>
<path d="M369.422 54.1212C370.894 54.1212 372.088 52.6089 372.088 50.7433C372.088 48.8778 370.894 47.3654 369.422 47.3654C367.949 47.3654 366.755 48.8778 366.755 50.7433C366.755 52.6089 367.949 54.1212 369.422 54.1212Z" fill="#0090F8"/>
<path d="M375.709 52.5023C377.138 50.9741 377.319 49.2227 376.113 48.5904C374.906 47.9582 372.769 48.6844 371.34 50.2126C369.91 51.7408 369.729 53.4922 370.936 54.1245C372.142 54.7568 374.279 54.0305 375.709 52.5023Z" fill="#0090F8"/>
<path d="M164.338 92.3083H95.0102C94.0283 92.3075 93.087 92.0151 92.3927 91.4955C91.6984 90.9758 91.3078 90.2712 91.3066 89.5363V33.6787C91.3078 32.9437 91.6984 32.2391 92.3927 31.7195C93.087 31.1998 94.0283 30.9075 95.0102 30.9066H164.338C165.32 30.9075 166.261 31.1998 166.955 31.7195C167.65 32.2392 168.04 32.9437 168.041 33.6787V89.5363C168.04 90.2712 167.65 90.9758 166.955 91.4954C166.261 92.0151 165.32 92.3074 164.338 92.3083ZM95.0102 32.0154C94.4211 32.0159 93.8562 32.1913 93.4396 32.5031C93.023 32.8149 92.7887 33.2377 92.7881 33.6787V89.5363C92.7887 89.9772 93.023 90.4 93.4396 90.7118C93.8562 91.0236 94.4211 91.199 95.0102 91.1995H164.338C164.927 91.199 165.492 91.0236 165.908 90.7118C166.325 90.4 166.559 89.9772 166.56 89.5363V33.6787C166.559 33.2377 166.325 32.8149 165.908 32.5031C165.492 32.1913 164.927 32.0159 164.338 32.0154H95.0102Z" fill="#E6E6E6"/>
<path d="M284.827 92.3083H215.499C214.518 92.3074 213.576 92.0151 212.882 91.4954C212.188 90.9758 211.797 90.2712 211.796 89.5363V33.6787C211.797 32.9437 212.188 32.2392 212.882 31.7195C213.576 31.1998 214.518 30.9075 215.499 30.9066H284.827C285.809 30.9075 286.75 31.1998 287.445 31.7195C288.139 32.2392 288.529 32.9437 288.531 33.6787V89.5363C288.529 90.2712 288.139 90.9758 287.445 91.4954C286.75 92.0151 285.809 92.3074 284.827 92.3083ZM215.499 32.0154C214.91 32.0159 214.345 32.1913 213.929 32.5031C213.512 32.8149 213.278 33.2377 213.277 33.6787V89.5363C213.278 89.9772 213.512 90.4 213.929 90.7118C214.345 91.0236 214.91 91.199 215.499 91.1995H284.827C285.416 91.199 285.981 91.0236 286.398 90.7118C286.814 90.4 287.049 89.9772 287.049 89.5363V33.6787C287.049 33.2377 286.814 32.8149 286.398 32.5031C285.981 32.1913 285.416 32.0159 284.827 32.0154H215.499Z" fill="#6C63FF"/>
<path d="M405.316 92.3083H335.989C335.007 92.3074 334.065 92.0151 333.371 91.4954C332.677 90.9758 332.286 90.2712 332.285 89.5363V33.6787C332.286 32.9437 332.677 32.2392 333.371 31.7195C334.065 31.1998 335.007 30.9075 335.989 30.9066H405.316C406.298 30.9075 407.24 31.1998 407.934 31.7195C408.628 32.2392 409.019 32.9437 409.02 33.6787V89.5363C409.019 90.2712 408.628 90.9758 407.934 91.4954C407.24 92.0151 406.298 92.3074 405.316 92.3083ZM335.989 32.0154C335.399 32.0159 334.835 32.1913 334.418 32.5031C334.001 32.8149 333.767 33.2377 333.767 33.6787V89.5363C333.767 89.9772 334.001 90.4 334.418 90.7118C334.835 91.0236 335.399 91.199 335.989 91.1995H405.316C405.905 91.199 406.47 91.0236 406.887 90.7118C407.303 90.4 407.538 89.9772 407.538 89.5363V33.6787C407.538 33.2377 407.303 32.8149 406.887 32.5031C406.47 32.1913 405.905 32.0159 405.316 32.0154H335.989Z" fill="#0090F8"/>
<path d="M353.516 98.6343C353.374 98.6343 353.238 98.6766 353.138 98.7518C353.037 98.8269 352.981 98.9288 352.981 99.0351V102.242C352.981 102.348 353.037 102.45 353.138 102.525C353.238 102.6 353.374 102.642 353.516 102.642H387.789C387.931 102.642 388.067 102.6 388.167 102.525C388.268 102.45 388.324 102.348 388.324 102.242V99.0351C388.324 98.9288 388.268 98.8269 388.167 98.7518C388.067 98.6766 387.931 98.6343 387.789 98.6343H353.516Z" fill="#0090F8"/>
<path d="M233.027 98.6343C232.885 98.6343 232.749 98.6766 232.648 98.7518C232.548 98.8269 232.492 98.9288 232.491 99.0351V102.242C232.492 102.348 232.548 102.45 232.648 102.525C232.749 102.6 232.885 102.642 233.027 102.642H267.299C267.441 102.642 267.578 102.6 267.678 102.525C267.778 102.45 267.835 102.348 267.835 102.242V99.0351C267.835 98.9288 267.778 98.8269 267.678 98.7518C267.578 98.6766 267.441 98.6343 267.299 98.6343H233.027Z" fill="#6C63FF"/>
<path d="M112.538 98.6343C112.396 98.6343 112.26 98.6766 112.159 98.7518C112.059 98.8269 112.002 98.9288 112.002 99.0351V102.242C112.002 102.348 112.059 102.45 112.159 102.525C112.26 102.6 112.396 102.642 112.538 102.642H146.81C146.952 102.642 147.088 102.6 147.189 102.525C147.289 102.45 147.346 102.348 147.346 102.242V99.0351C147.346 98.9288 147.289 98.8269 147.189 98.7518C147.088 98.6766 146.952 98.6343 146.81 98.6343H112.538Z" fill="#E6E6E6"/>
<path d="M297.321 47.9744L279.936 40.1348L285.013 54.844L288.074 49.4851L293.178 54.6084L294.692 53.7634L289.588 48.6402L297.321 47.9744Z" fill="#6C63FF"/>
<path d="M320.827 47.9744L338.212 40.1348L333.135 54.844L330.075 49.4851L324.97 54.6084L323.456 53.7634L328.561 48.6402L320.827 47.9744Z" fill="#0090F8"/>
</g>
<defs>
<clipPath id="clip0_4_291">
<rect width="509" height="249" fill="white"/>
</clipPath>
</defs>
</svg>
