<svg width="344" height="211" viewBox="0 0 344 211" fill="none" xmlns="http://www.w3.org/2000/svg">
<path d="M166.07 39.7635L162.667 41.3119C158.747 34.3911 153.554 28.1124 147.306 22.7397C116.624 -3.70969 67.6646 -2.84495 38.1677 24.6674C8.67073 52.1797 9.63511 96.0807 40.3174 122.53C46.1571 127.574 52.8472 131.761 60.1414 134.937L58.4767 138.016C46.9151 132.982 36.8553 125.554 29.1284 116.344C21.4015 107.135 16.2293 96.4095 14.0392 85.0535C11.849 73.6975 12.7038 62.0372 16.5329 51.036C20.3619 40.0348 27.0554 30.0085 36.0602 21.7855C45.065 13.5624 56.1226 7.37874 68.3195 3.74528C80.5165 0.111817 93.5025 -0.867104 106.205 0.889395C118.907 2.64589 130.961 7.08739 141.37 13.8469C151.78 20.6065 160.246 29.49 166.07 39.7635Z" fill="#E6E6E6"/>
<path d="M50.9385 103.422C45.933 108.091 43.2008 114.352 43.3431 120.827C43.4853 127.302 46.4903 133.461 51.6969 137.949C56.9036 142.438 63.8855 144.888 71.1066 144.76C78.3277 144.632 85.1965 141.938 90.202 137.269L94.8903 132.896L55.6268 99.0496L50.9385 103.422Z" fill="#E6E6E6"/>
<path d="M52.9961 96.566C51.8819 97.6076 51.274 99.0029 51.3057 100.446C51.3374 101.889 52.0061 103.262 53.1652 104.263L89.1776 135.307C90.3383 136.308 91.8947 136.854 93.5045 136.826C95.1143 136.797 96.6456 136.196 97.7615 135.156C98.8774 134.115 99.4865 132.719 99.4547 131.276C99.423 129.832 98.7531 128.459 97.5924 127.459L61.58 96.4144C60.4184 95.4153 58.8623 94.8702 57.2531 94.8986C55.6438 94.9271 54.1129 95.5267 52.9961 96.566Z" fill="#535461"/>
<path d="M161.007 71.2281L165.695 66.8553C170.701 62.1865 173.433 55.926 173.291 49.451C173.148 42.9759 170.144 36.8168 164.937 32.3284C162.359 30.106 159.318 28.3607 155.987 27.1921C152.657 26.0235 149.103 25.4546 145.527 25.5177C138.306 25.6452 131.437 28.3398 126.432 33.0085L121.743 37.3813L161.007 71.2281Z" fill="#E6E6E6"/>
<path d="M118.872 35.122C117.758 36.1636 117.15 37.5589 117.182 39.0019C117.214 40.4449 117.882 41.8177 119.041 42.8191L155.054 73.8633C156.215 74.8627 157.771 75.4078 159.38 75.3789C160.989 75.35 162.519 74.7493 163.635 73.709C164.75 72.6687 165.359 71.2738 165.328 69.831C165.297 68.3882 164.628 67.0155 163.469 66.0146L127.456 34.9704C126.295 33.9714 124.739 33.4262 123.129 33.4547C121.52 33.4831 119.989 34.0827 118.872 35.122Z" fill="#535461"/>
<path d="M134.064 106.864V104.342C134.064 104.342 146.338 98.151 156.312 104.342V106.635L134.064 106.864Z" fill="#535461"/>
<path d="M245.814 106.864V104.342C245.814 104.342 258.089 98.151 268.062 104.342V106.635L245.814 106.864Z" fill="#535461"/>
<path d="M170.888 106.635H158.869C158.869 106.635 155.8 103.425 145.571 103.654C135.342 103.884 133.297 106.635 133.297 106.635C133.297 106.635 123.196 112.712 120.894 120.279C120.894 120.279 108.492 153.642 108.236 179.782C107.98 205.922 119.232 209.591 125.114 210.279C130.995 210.967 141.48 210.05 151.709 186.89L156.056 173.362C156.056 173.362 156.823 165.336 166.029 170.381C175.235 175.425 183.418 167.629 183.418 167.629H217.94C217.94 167.629 229.448 174.05 239.932 169.005C239.932 169.005 244.024 164.19 247.86 180.47C247.86 180.47 259.623 213.948 277.779 210.508C295.935 207.069 293.89 179.094 293.89 179.094C293.89 179.094 291.46 136.33 281.487 121.196C281.487 121.196 271.898 105.489 265.505 104.801C265.505 104.801 251.696 102.508 246.325 104.571L243.257 106.864L170.888 106.635Z" fill="#E6E6E6"/>
<path d="M143.014 149.056C155.301 149.056 165.262 140.124 165.262 129.107C165.262 118.089 155.301 109.157 143.014 109.157C130.727 109.157 120.766 118.089 120.766 129.107C120.766 140.124 130.727 149.056 143.014 149.056Z" fill="#535461"/>
<path d="M259.111 149.056C271.399 149.056 281.359 140.124 281.359 129.107C281.359 118.089 271.399 109.157 259.111 109.157C246.824 109.157 236.864 118.089 236.864 129.107C236.864 140.124 246.824 149.056 259.111 149.056Z" fill="#535461"/>
<path d="M146.891 124.658L143.924 127.011C143.673 127.209 143.35 127.319 143.015 127.319C142.681 127.319 142.357 127.209 142.106 127.011L139.135 124.658C138.989 124.543 138.873 124.402 138.793 124.244C138.712 124.086 138.67 123.915 138.669 123.741V117.268C138.67 116.941 138.815 116.628 139.073 116.397C139.331 116.166 139.681 116.036 140.045 116.036H145.991C146.355 116.036 146.704 116.165 146.962 116.395C147.22 116.626 147.366 116.939 147.366 117.266V123.736C147.365 123.912 147.322 124.084 147.239 124.243C147.157 124.402 147.039 124.544 146.891 124.658Z" fill="#E6E6E6"/>
<path d="M146.891 133.553L143.924 131.202C143.673 131.004 143.35 130.895 143.015 130.895C142.681 130.895 142.357 131.004 142.106 131.202L139.135 133.555C138.989 133.67 138.873 133.811 138.793 133.969C138.712 134.127 138.67 134.299 138.669 134.472V140.939C138.669 141.265 138.813 141.579 139.07 141.81C139.327 142.041 139.676 142.172 140.04 142.172H145.991C146.355 142.173 146.704 142.044 146.962 141.813C147.22 141.583 147.366 141.27 147.366 140.943V134.475C147.365 134.299 147.322 134.127 147.239 133.968C147.157 133.809 147.039 133.667 146.891 133.553Z" fill="#E6E6E6"/>
<path d="M138.056 132.587L140.679 129.923C140.9 129.698 141.022 129.408 141.022 129.108C141.022 128.808 140.9 128.518 140.679 128.293L138.056 125.628C137.927 125.498 137.77 125.393 137.594 125.322C137.418 125.25 137.226 125.212 137.033 125.211H129.821C129.457 125.211 129.108 125.342 128.85 125.573C128.593 125.804 128.448 126.118 128.448 126.444V131.776C128.447 132.102 128.591 132.416 128.849 132.647C129.106 132.878 129.455 133.009 129.819 133.009H137.035C137.229 133.007 137.42 132.969 137.596 132.896C137.772 132.824 137.928 132.718 138.056 132.587Z" fill="#E6E6E6"/>
<path d="M147.975 132.587L145.356 129.921C145.135 129.696 145.012 129.406 145.012 129.106C145.012 128.805 145.135 128.515 145.356 128.29L147.98 125.626C148.108 125.496 148.266 125.391 148.442 125.319C148.618 125.247 148.809 125.21 149.003 125.209H156.214C156.579 125.208 156.928 125.337 157.186 125.568C157.444 125.798 157.589 126.111 157.59 126.438V131.773C157.591 132.1 157.447 132.413 157.19 132.645C156.933 132.876 156.584 133.006 156.219 133.007H149.006C148.81 133.007 148.618 132.969 148.44 132.897C148.262 132.825 148.104 132.719 147.975 132.587Z" fill="#E6E6E6"/>
<path d="M173.189 165.336C182.087 165.336 189.3 158.869 189.3 150.89C189.3 142.912 182.087 136.444 173.189 136.444C164.292 136.444 157.079 142.912 157.079 150.89C157.079 158.869 164.292 165.336 173.189 165.336Z" fill="#535461"/>
<path d="M228.936 165.336C237.834 165.336 245.047 158.869 245.047 150.89C245.047 142.912 237.834 136.444 228.936 136.444C220.039 136.444 212.826 142.912 212.826 150.89C212.826 158.869 220.039 165.336 228.936 165.336Z" fill="#535461"/>
<path d="M173.189 160.521C179.121 160.521 183.929 156.209 183.929 150.89C183.929 145.571 179.121 141.26 173.189 141.26C167.257 141.26 162.449 145.571 162.449 150.89C162.449 156.209 167.257 160.521 173.189 160.521Z" fill="#E6E6E6"/>
<path d="M173.189 157.54C171.722 157.54 170.289 157.15 169.069 156.419C167.85 155.689 166.899 154.65 166.338 153.435C165.776 152.22 165.63 150.883 165.916 149.593C166.202 148.303 166.908 147.118 167.945 146.188C168.982 145.258 170.304 144.625 171.742 144.368C173.181 144.112 174.672 144.243 176.027 144.747C177.382 145.25 178.54 146.102 179.355 147.196C180.17 148.289 180.605 149.575 180.605 150.89C180.603 152.653 179.821 154.343 178.431 155.59C177.04 156.837 175.155 157.538 173.189 157.54ZM173.189 144.699C171.824 144.699 170.489 145.062 169.353 145.742C168.218 146.423 167.333 147.39 166.81 148.521C166.288 149.652 166.151 150.897 166.417 152.098C166.684 153.299 167.341 154.402 168.307 155.268C169.273 156.134 170.503 156.723 171.842 156.962C173.182 157.201 174.57 157.079 175.831 156.61C177.093 156.141 178.171 155.348 178.93 154.33C179.689 153.312 180.094 152.115 180.094 150.89C180.092 149.249 179.363 147.675 178.069 146.514C176.775 145.354 175.02 144.701 173.189 144.699Z" fill="#535461"/>
<path d="M228.936 160.521C234.868 160.521 239.677 156.209 239.677 150.89C239.677 145.571 234.868 141.26 228.936 141.26C223.005 141.26 218.196 145.571 218.196 150.89C218.196 156.209 223.005 160.521 228.936 160.521Z" fill="#E6E6E6"/>
<path d="M228.936 157.54C227.47 157.54 226.036 157.15 224.816 156.419C223.597 155.689 222.646 154.65 222.085 153.435C221.524 152.22 221.377 150.883 221.663 149.593C221.949 148.303 222.655 147.118 223.693 146.188C224.73 145.258 226.051 144.625 227.49 144.368C228.928 144.112 230.419 144.243 231.774 144.747C233.129 145.25 234.288 146.102 235.103 147.196C235.917 148.289 236.352 149.575 236.352 150.89C236.35 152.653 235.568 154.343 234.178 155.59C232.788 156.837 230.903 157.538 228.936 157.54ZM228.936 144.699C227.571 144.699 226.236 145.062 225.101 145.742C223.965 146.423 223.08 147.39 222.558 148.521C222.035 149.652 221.898 150.897 222.165 152.098C222.431 153.299 223.089 154.402 224.054 155.268C225.02 156.134 226.25 156.723 227.589 156.962C228.929 157.201 230.317 157.079 231.579 156.61C232.84 156.141 233.919 155.348 234.677 154.33C235.436 153.312 235.841 152.115 235.841 150.89C235.839 149.249 235.111 147.675 233.816 146.514C232.522 145.354 230.767 144.701 228.936 144.699Z" fill="#535461"/>
<path d="M201.574 156.623C204.116 156.623 206.177 154.775 206.177 152.495C206.177 150.216 204.116 148.368 201.574 148.368C199.032 148.368 196.971 150.216 196.971 152.495C196.971 154.775 199.032 156.623 201.574 156.623Z" fill="#535461"/>
<path d="M194.539 139.62C195.094 139.62 195.544 139.217 195.544 138.719C195.544 138.221 195.094 137.818 194.539 137.818C193.984 137.818 193.534 138.221 193.534 138.719C193.534 139.217 193.984 139.62 194.539 139.62Z" fill="#535461"/>
<path d="M198.304 139.62C198.859 139.62 199.309 139.217 199.309 138.719C199.309 138.221 198.859 137.818 198.304 137.818C197.749 137.818 197.299 138.221 197.299 138.719C197.299 139.217 197.749 139.62 198.304 139.62Z" fill="#535461"/>
<path d="M197.802 143.897C198.357 143.897 198.807 143.493 198.807 142.995C198.807 142.498 198.357 142.094 197.802 142.094C197.247 142.094 196.797 142.498 196.797 142.995C196.797 143.493 197.247 143.897 197.802 143.897Z" fill="#535461"/>
<path d="M201.319 144.011C201.883 144.011 202.341 143.601 202.341 143.094C202.341 142.587 201.883 142.177 201.319 142.177C200.754 142.177 200.296 142.587 200.296 143.094C200.296 143.601 200.754 144.011 201.319 144.011Z" fill="#535461"/>
<path d="M204.83 143.897C205.385 143.897 205.835 143.493 205.835 142.995C205.835 142.498 205.385 142.094 204.83 142.094C204.275 142.094 203.825 142.498 203.825 142.995C203.825 143.493 204.275 143.897 204.83 143.897Z" fill="#535461"/>
<path d="M196.296 141.872C196.851 141.872 197.301 141.468 197.301 140.971C197.301 140.473 196.851 140.07 196.296 140.07C195.741 140.07 195.291 140.473 195.291 140.971C195.291 141.468 195.741 141.872 196.296 141.872Z" fill="#535461"/>
<path d="M199.528 141.948C200.093 141.948 200.551 141.537 200.551 141.03C200.551 140.524 200.093 140.113 199.528 140.113C198.964 140.113 198.506 140.524 198.506 141.03C198.506 141.537 198.964 141.948 199.528 141.948Z" fill="#535461"/>
<path d="M202.853 141.948C203.418 141.948 203.876 141.537 203.876 141.03C203.876 140.524 203.418 140.113 202.853 140.113C202.288 140.113 201.83 140.524 201.83 141.03C201.83 141.537 202.288 141.948 202.853 141.948Z" fill="#535461"/>
<path d="M206.336 141.872C206.891 141.872 207.341 141.468 207.341 140.971C207.341 140.473 206.891 140.07 206.336 140.07C205.781 140.07 205.331 140.473 205.331 140.971C205.331 141.468 205.781 141.872 206.336 141.872Z" fill="#535461"/>
<path d="M201.319 139.654C201.883 139.654 202.341 139.244 202.341 138.737C202.341 138.231 201.883 137.82 201.319 137.82C200.754 137.82 200.296 138.231 200.296 138.737C200.296 139.244 200.754 139.654 201.319 139.654Z" fill="#535461"/>
<path d="M204.899 139.654C205.464 139.654 205.921 139.244 205.921 138.737C205.921 138.231 205.464 137.82 204.899 137.82C204.334 137.82 203.876 138.231 203.876 138.737C203.876 139.244 204.334 139.654 204.899 139.654Z" fill="#535461"/>
<path d="M207.842 139.62C208.397 139.62 208.847 139.217 208.847 138.719C208.847 138.221 208.397 137.818 207.842 137.818C207.287 137.818 206.837 138.221 206.837 138.719C206.837 139.217 207.287 139.62 207.842 139.62Z" fill="#535461"/>
<path d="M163.344 108.589C162.871 108.59 162.417 108.759 162.083 109.059C161.748 109.358 161.56 109.765 161.56 110.189V115.005C161.56 115.429 161.748 115.836 162.083 116.135C162.417 116.435 162.871 116.604 163.344 116.605H164.623C165.096 116.604 165.549 116.435 165.884 116.135C166.218 115.836 166.406 115.429 166.407 115.005V110.189C166.406 109.765 166.218 109.358 165.884 109.059C165.549 108.759 165.096 108.59 164.623 108.589H163.344Z" fill="#535461"/>
<path d="M238.014 108.589C237.541 108.59 237.088 108.759 236.753 109.059C236.419 109.358 236.231 109.765 236.23 110.189V115.005C236.231 115.429 236.419 115.836 236.753 116.135C237.088 116.435 237.541 116.604 238.014 116.605H239.293C239.766 116.604 240.22 116.435 240.554 116.135C240.889 115.836 241.077 115.429 241.077 115.005V110.189C241.077 109.765 240.889 109.358 240.554 109.059C240.22 108.759 239.766 108.59 239.293 108.589H238.014Z" fill="#535461"/>
<path d="M259.367 122.457C262.757 122.457 265.505 119.993 265.505 116.954C265.505 113.914 262.757 111.45 259.367 111.45C255.978 111.45 253.23 113.914 253.23 116.954C253.23 119.993 255.978 122.457 259.367 122.457Z" fill="#E6E6E6"/>
<path d="M246.325 134.151C249.715 134.151 252.463 131.687 252.463 128.648C252.463 125.609 249.715 123.145 246.325 123.145C242.936 123.145 240.188 125.609 240.188 128.648C240.188 131.687 242.936 134.151 246.325 134.151Z" fill="#E6E6E6"/>
<path d="M272.92 133.463C276.31 133.463 279.058 130.999 279.058 127.96C279.058 124.921 276.31 122.457 272.92 122.457C269.531 122.457 266.783 124.921 266.783 127.96C266.783 130.999 269.531 133.463 272.92 133.463Z" fill="#E6E6E6"/>
<path d="M260.39 145.616C263.78 145.616 266.527 143.152 266.527 140.113C266.527 137.074 263.78 134.61 260.39 134.61C257.001 134.61 254.253 137.074 254.253 140.113C254.253 143.152 257.001 145.616 260.39 145.616Z" fill="#E6E6E6"/>
<path d="M174.915 105.379C173.544 105.381 172.229 105.87 171.259 106.739C170.29 107.609 169.744 108.788 169.743 110.017V130.54C169.744 131.769 170.29 132.948 171.259 133.818C172.229 134.687 173.544 135.176 174.915 135.178H227.466C228.837 135.176 230.152 134.687 231.122 133.818C232.091 132.948 232.637 131.769 232.638 130.54V110.017C232.637 108.788 232.091 107.609 231.122 106.739C230.152 105.87 228.837 105.381 227.466 105.379H174.915Z" fill="#535461"/>
<path d="M263.537 119.476H255.214L259.232 113.3L263.537 119.476ZM256.105 119.017H262.614L259.247 114.187L256.105 119.017Z" fill="#535461"/>
<path d="M249.778 131.4H242.873V125.896H249.778V131.4ZM243.385 130.941H249.266V126.355H243.385V130.941Z" fill="#535461"/>
<path d="M272.92 131.4C272.162 131.4 271.42 131.198 270.789 130.82C270.159 130.442 269.667 129.905 269.377 129.276C269.086 128.648 269.01 127.956 269.158 127.289C269.306 126.622 269.672 126.009 270.208 125.528C270.745 125.047 271.428 124.719 272.172 124.587C272.916 124.454 273.687 124.522 274.388 124.782C275.089 125.043 275.688 125.484 276.11 126.049C276.531 126.615 276.756 127.28 276.756 127.96C276.755 128.872 276.351 129.746 275.632 130.391C274.912 131.036 273.937 131.399 272.92 131.4ZM272.92 124.979C272.263 124.979 271.62 125.154 271.074 125.482C270.527 125.809 270.101 126.275 269.849 126.819C269.598 127.364 269.532 127.963 269.66 128.542C269.788 129.12 270.105 129.651 270.57 130.068C271.035 130.485 271.627 130.769 272.272 130.884C272.917 130.999 273.585 130.94 274.193 130.714C274.8 130.489 275.319 130.106 275.685 129.616C276.05 129.126 276.245 128.55 276.245 127.96C276.244 127.17 275.893 126.412 275.27 125.853C274.647 125.294 273.802 124.98 272.92 124.979Z" fill="#535461"/>
<path d="M257.63 137.371L257.269 137.696L263.022 142.855L263.384 142.531L257.63 137.371Z" fill="#535461"/>
<path d="M263.154 137.367L257.273 142.413L257.627 142.744L263.507 137.699L263.154 137.367Z" fill="#535461"/>
</svg>
